G04 EAGLE Gerber X2 export*
%TF.Part,Single*%
%TF.FileFunction,Copper,L1,Top,Mixed*%
%TF.FilePolarity,Positive*%
%TF.GenerationSoftware,Autodesk,EAGLE,9.1.0*%
%TF.CreationDate,2019-01-28T13:00:55Z*%
G75*
%MOMM*%
%FSLAX34Y34*%
%LPD*%
%AMOC8*
5,1,8,0,0,1.08239X$1,22.5*%
G01*
%ADD10P,1.732040X8X22.500000*%
%ADD11R,1.100000X0.900000*%
%ADD12R,0.900000X1.100000*%
%ADD13R,1.500000X1.500000*%
%ADD14R,2.300000X2.700000*%
%ADD15R,1.524000X4.064000*%
%ADD16R,1.016000X2.032000*%
%ADD17C,0.254000*%
%ADD18C,0.756400*%
%ADD19C,0.152400*%

G36*
X149865Y117977D02*
X149865Y117977D01*
X149931Y117979D01*
X149974Y117997D01*
X150021Y118005D01*
X150078Y118039D01*
X150138Y118064D01*
X150173Y118095D01*
X150214Y118120D01*
X150256Y118171D01*
X150304Y118215D01*
X150326Y118257D01*
X150355Y118294D01*
X150376Y118356D01*
X150407Y118415D01*
X150415Y118469D01*
X150427Y118506D01*
X150426Y118546D01*
X150434Y118600D01*
X150434Y144600D01*
X150423Y144665D01*
X150421Y144731D01*
X150403Y144774D01*
X150395Y144821D01*
X150361Y144878D01*
X150336Y144938D01*
X150305Y144973D01*
X150280Y145014D01*
X150229Y145056D01*
X150185Y145104D01*
X150143Y145126D01*
X150106Y145155D01*
X150044Y145176D01*
X149985Y145207D01*
X149931Y145215D01*
X149894Y145227D01*
X149854Y145226D01*
X149800Y145234D01*
X136300Y145234D01*
X136258Y145227D01*
X136216Y145229D01*
X136149Y145207D01*
X136079Y145195D01*
X136043Y145173D01*
X136002Y145160D01*
X135929Y145106D01*
X135886Y145080D01*
X135873Y145064D01*
X135852Y145048D01*
X127352Y136548D01*
X127327Y136514D01*
X127296Y136485D01*
X127264Y136422D01*
X127223Y136364D01*
X127213Y136323D01*
X127193Y136285D01*
X127180Y136196D01*
X127168Y136147D01*
X127170Y136126D01*
X127166Y136100D01*
X127166Y118600D01*
X127177Y118535D01*
X127179Y118469D01*
X127197Y118426D01*
X127205Y118379D01*
X127239Y118322D01*
X127264Y118262D01*
X127295Y118227D01*
X127320Y118186D01*
X127371Y118145D01*
X127415Y118096D01*
X127457Y118074D01*
X127494Y118045D01*
X127556Y118024D01*
X127615Y117993D01*
X127669Y117985D01*
X127706Y117973D01*
X127746Y117974D01*
X127800Y117966D01*
X149800Y117966D01*
X149865Y117977D01*
G37*
G36*
X27506Y171205D02*
X27506Y171205D01*
X27564Y171203D01*
X27646Y171225D01*
X27730Y171237D01*
X27783Y171261D01*
X27839Y171275D01*
X27912Y171318D01*
X27989Y171353D01*
X28034Y171391D01*
X28084Y171421D01*
X28142Y171482D01*
X28206Y171537D01*
X28238Y171585D01*
X28278Y171628D01*
X28317Y171703D01*
X28364Y171773D01*
X28381Y171829D01*
X28408Y171881D01*
X28419Y171949D01*
X28449Y172044D01*
X28452Y172144D01*
X28463Y172212D01*
X28463Y193040D01*
X28455Y193098D01*
X28457Y193156D01*
X28435Y193238D01*
X28423Y193322D01*
X28400Y193375D01*
X28385Y193431D01*
X28342Y193504D01*
X28307Y193581D01*
X28269Y193626D01*
X28240Y193676D01*
X28178Y193734D01*
X28124Y193798D01*
X28075Y193830D01*
X28032Y193870D01*
X27957Y193909D01*
X27887Y193956D01*
X27831Y193973D01*
X27779Y194000D01*
X27711Y194011D01*
X27616Y194041D01*
X27516Y194044D01*
X27448Y194055D01*
X6350Y194055D01*
X6292Y194047D01*
X6234Y194049D01*
X6152Y194027D01*
X6069Y194015D01*
X6015Y193992D01*
X5959Y193977D01*
X5886Y193934D01*
X5809Y193899D01*
X5764Y193861D01*
X5714Y193832D01*
X5656Y193770D01*
X5592Y193716D01*
X5560Y193667D01*
X5520Y193624D01*
X5481Y193549D01*
X5435Y193479D01*
X5417Y193423D01*
X5390Y193371D01*
X5379Y193303D01*
X5349Y193208D01*
X5346Y193108D01*
X5335Y193040D01*
X5335Y172212D01*
X5343Y172154D01*
X5341Y172096D01*
X5363Y172014D01*
X5375Y171931D01*
X5399Y171877D01*
X5413Y171821D01*
X5456Y171748D01*
X5491Y171671D01*
X5529Y171626D01*
X5559Y171576D01*
X5620Y171518D01*
X5675Y171454D01*
X5723Y171422D01*
X5766Y171382D01*
X5841Y171343D01*
X5911Y171297D01*
X5967Y171279D01*
X6019Y171252D01*
X6087Y171241D01*
X6182Y171211D01*
X6282Y171208D01*
X6350Y171197D01*
X27448Y171197D01*
X27506Y171205D01*
G37*
G36*
X69908Y171205D02*
X69908Y171205D01*
X69966Y171203D01*
X70048Y171225D01*
X70132Y171237D01*
X70185Y171261D01*
X70241Y171275D01*
X70314Y171318D01*
X70391Y171353D01*
X70436Y171391D01*
X70486Y171421D01*
X70544Y171482D01*
X70608Y171537D01*
X70640Y171585D01*
X70680Y171628D01*
X70719Y171703D01*
X70766Y171773D01*
X70783Y171829D01*
X70810Y171881D01*
X70821Y171949D01*
X70851Y172044D01*
X70854Y172144D01*
X70865Y172212D01*
X70865Y193040D01*
X70857Y193098D01*
X70859Y193156D01*
X70837Y193238D01*
X70825Y193322D01*
X70802Y193375D01*
X70787Y193431D01*
X70744Y193504D01*
X70709Y193581D01*
X70671Y193626D01*
X70642Y193676D01*
X70580Y193734D01*
X70526Y193798D01*
X70477Y193830D01*
X70434Y193870D01*
X70359Y193909D01*
X70289Y193956D01*
X70233Y193973D01*
X70181Y194000D01*
X70113Y194011D01*
X70018Y194041D01*
X69918Y194044D01*
X69850Y194055D01*
X48752Y194055D01*
X48694Y194047D01*
X48636Y194049D01*
X48554Y194027D01*
X48471Y194015D01*
X48417Y193992D01*
X48361Y193977D01*
X48288Y193934D01*
X48211Y193899D01*
X48166Y193861D01*
X48116Y193832D01*
X48058Y193770D01*
X47994Y193716D01*
X47962Y193667D01*
X47922Y193624D01*
X47883Y193549D01*
X47837Y193479D01*
X47819Y193423D01*
X47792Y193371D01*
X47781Y193303D01*
X47751Y193208D01*
X47748Y193108D01*
X47737Y193040D01*
X47737Y172212D01*
X47745Y172154D01*
X47743Y172096D01*
X47765Y172014D01*
X47777Y171931D01*
X47801Y171877D01*
X47815Y171821D01*
X47858Y171748D01*
X47893Y171671D01*
X47931Y171626D01*
X47961Y171576D01*
X48022Y171518D01*
X48077Y171454D01*
X48125Y171422D01*
X48168Y171382D01*
X48243Y171343D01*
X48313Y171297D01*
X48369Y171279D01*
X48421Y171252D01*
X48489Y171241D01*
X48584Y171211D01*
X48684Y171208D01*
X48752Y171197D01*
X69850Y171197D01*
X69908Y171205D01*
G37*
D10*
X114300Y215900D03*
X165100Y215900D03*
X215900Y215900D03*
X266700Y215900D03*
D11*
X96800Y157600D03*
X96800Y143600D03*
X96800Y129600D03*
X96800Y115600D03*
X96800Y101600D03*
X96800Y87600D03*
X96800Y73600D03*
X96800Y59600D03*
X96800Y45600D03*
D12*
X100800Y30600D03*
X114800Y30600D03*
X128800Y30600D03*
X142800Y30600D03*
X156800Y30600D03*
X170800Y30600D03*
X184800Y30600D03*
X198800Y30600D03*
X212800Y30600D03*
X226800Y30600D03*
X240800Y30600D03*
X254800Y30600D03*
D11*
X258800Y45600D03*
X258800Y59600D03*
X258800Y73600D03*
X258800Y87600D03*
X258800Y101600D03*
X258800Y115600D03*
X258800Y129600D03*
X258800Y143600D03*
X258800Y157600D03*
D12*
X254800Y172600D03*
X240800Y172600D03*
X226800Y172600D03*
X212800Y172600D03*
X198800Y172600D03*
X184800Y172600D03*
X170800Y172600D03*
X156800Y172600D03*
X142800Y172600D03*
X128800Y172600D03*
X114800Y172600D03*
X100800Y172600D03*
D11*
X114200Y157600D03*
X114200Y143600D03*
X114200Y129600D03*
X114200Y115600D03*
X114200Y101600D03*
X114200Y87600D03*
X114200Y73600D03*
X114200Y59600D03*
X114200Y45600D03*
D12*
X128800Y46600D03*
X142800Y46600D03*
X156800Y46600D03*
X170800Y46600D03*
X184800Y46600D03*
X198800Y46600D03*
X212800Y46600D03*
X226800Y46600D03*
D11*
X241400Y45600D03*
X241400Y59600D03*
X241400Y73600D03*
X241400Y87600D03*
X241400Y101600D03*
X241400Y115600D03*
X241400Y129600D03*
X241400Y143600D03*
X241400Y157600D03*
D12*
X226800Y156600D03*
X212800Y156600D03*
X198800Y156600D03*
X184800Y156600D03*
X170800Y156600D03*
X156800Y156600D03*
X142800Y156600D03*
X128800Y156600D03*
D13*
X138800Y131600D03*
D14*
X138800Y101600D03*
X138800Y71600D03*
X164800Y71600D03*
X190800Y71600D03*
X216800Y71600D03*
X216800Y101600D03*
X216800Y131600D03*
X190800Y131600D03*
X164800Y131600D03*
X164800Y101600D03*
X190800Y101600D03*
D15*
X63500Y182880D03*
X12700Y182880D03*
D16*
X38100Y172720D03*
D17*
X139446Y100584D02*
X164592Y100584D01*
X164800Y101600D01*
X192024Y100584D02*
X214884Y100584D01*
X192024Y100584D02*
X190800Y101600D01*
X214884Y100584D02*
X216800Y101600D01*
X189738Y100584D02*
X166878Y100584D01*
X164800Y101600D01*
X189738Y100584D02*
X190800Y101600D01*
X164592Y70866D02*
X139446Y70866D01*
X138800Y71600D01*
X164592Y70866D02*
X164800Y71600D01*
X198882Y48006D02*
X212598Y48006D01*
X198882Y48006D02*
X198800Y46600D01*
X212598Y48006D02*
X212800Y46600D01*
X214884Y48006D02*
X214884Y70866D01*
X214884Y48006D02*
X212800Y46600D01*
X214884Y70866D02*
X192024Y70866D01*
X190800Y71600D01*
X214884Y70866D02*
X216800Y71600D01*
X189738Y70866D02*
X166878Y70866D01*
X164800Y71600D01*
X189738Y70866D02*
X190800Y71600D01*
X139446Y73152D02*
X139446Y100584D01*
X138800Y101600D01*
X139446Y73152D02*
X138800Y71600D01*
X144018Y173736D02*
X155448Y173736D01*
X144018Y173736D02*
X142800Y172600D01*
X155448Y173736D02*
X156800Y172600D01*
X157734Y173736D02*
X164592Y173736D01*
X169164Y173736D01*
X170800Y172600D01*
X157734Y173736D02*
X156800Y172600D01*
X171450Y157734D02*
X182880Y157734D01*
X184800Y156600D01*
X185166Y157734D02*
X196596Y157734D01*
X198800Y156600D01*
X185166Y157734D02*
X184800Y156600D01*
X198882Y157734D02*
X198882Y171450D01*
X198800Y172600D01*
X198882Y157734D02*
X198800Y156600D01*
X171450Y157734D02*
X171450Y171450D01*
X170800Y172600D01*
X171450Y157734D02*
X170800Y156600D01*
X164592Y173736D02*
X164592Y214884D01*
X165100Y215900D01*
X96012Y61722D02*
X93726Y61722D01*
X86868Y68580D01*
X86868Y80010D01*
X93726Y86868D02*
X96012Y89154D01*
X93726Y86868D02*
X86868Y80010D01*
X96012Y61722D02*
X96800Y59600D01*
X96800Y87600D02*
X96012Y89154D01*
X128016Y29718D02*
X123444Y25146D01*
X123444Y22860D01*
X121158Y20574D01*
X96012Y20574D01*
X86868Y29718D01*
X86868Y38100D02*
X86868Y54864D01*
X86868Y38100D02*
X86868Y29718D01*
X86868Y54864D02*
X93726Y61722D01*
X128800Y30600D02*
X128016Y29718D01*
X96800Y59600D02*
X93726Y61722D01*
X13716Y176022D02*
X13716Y182880D01*
X13716Y176022D02*
X32004Y157734D01*
X43434Y157734D01*
X61722Y176022D01*
X61722Y182880D01*
X13716Y182880D02*
X12700Y182880D01*
X61722Y182880D02*
X63500Y182880D01*
X114300Y141732D02*
X114300Y132588D01*
X114300Y130302D01*
X114200Y129600D01*
X114300Y141732D02*
X114200Y143600D01*
X112014Y144018D02*
X98298Y144018D01*
X96800Y143600D01*
X112014Y144018D02*
X114200Y143600D01*
X114300Y144018D02*
X114300Y155448D01*
X114200Y157600D01*
X114300Y144018D02*
X114200Y143600D01*
X114300Y157734D02*
X116586Y157734D01*
X128016Y157734D01*
X128800Y156600D01*
X114300Y157734D02*
X114200Y157600D01*
X116586Y157734D02*
X116586Y171450D01*
X114800Y172600D01*
X116586Y157734D02*
X114200Y157600D01*
X114300Y132588D02*
X137160Y132588D01*
X138800Y131600D01*
X114300Y132588D02*
X114200Y129600D01*
X226314Y141732D02*
X240030Y141732D01*
X226314Y141732D02*
X217170Y132588D01*
X240030Y141732D02*
X241400Y143600D01*
X217170Y132588D02*
X216800Y131600D01*
X189738Y132588D02*
X166878Y132588D01*
X164800Y131600D01*
X189738Y132588D02*
X190800Y131600D01*
X192024Y132588D02*
X198882Y132588D01*
X214884Y132588D01*
X216800Y131600D01*
X192024Y132588D02*
X190800Y131600D01*
X164592Y132588D02*
X139446Y132588D01*
X138800Y131600D01*
X164592Y132588D02*
X164800Y131600D01*
X96012Y141732D02*
X93726Y144018D01*
X61722Y176022D01*
X63500Y182880D01*
X96800Y143600D02*
X96012Y141732D01*
X86868Y93726D02*
X93726Y86868D01*
X86868Y93726D02*
X86868Y137160D01*
X93726Y144018D01*
X96800Y87600D02*
X93726Y86868D01*
X96800Y143600D02*
X93726Y144018D01*
X198882Y132588D02*
X198882Y155448D01*
X198800Y156600D01*
X198882Y132588D02*
X190800Y131600D01*
X139446Y130302D02*
X139446Y102870D01*
X138800Y101600D01*
X139446Y130302D02*
X138800Y131600D01*
D18*
X50800Y38100D03*
D17*
X86868Y38100D01*
X198800Y172600D02*
X198800Y224200D01*
X215900Y241300D02*
X279400Y241300D01*
X355600Y165100D01*
X381000Y165100D01*
D18*
X381000Y165100D03*
D17*
X215900Y241300D02*
X198800Y224200D01*
D19*
X114200Y91440D02*
X114200Y87600D01*
X114200Y91440D02*
X121920Y91440D01*
D18*
X121920Y91440D03*
X121920Y91440D03*
X121920Y91440D03*
X304800Y132080D03*
D17*
X365760Y111760D01*
D18*
X365760Y111760D03*
X325120Y71120D03*
D17*
X325120Y10160D01*
X316230Y1270D01*
X172720Y1270D01*
X172720Y28680D01*
X170800Y30600D01*
D18*
X294640Y101600D03*
D17*
X294640Y91440D01*
X286484Y83284D01*
X286484Y40640D01*
D18*
X286484Y40640D03*
X272316Y40640D03*
D19*
X266078Y40640D01*
X266078Y39322D01*
X170800Y39322D01*
X170800Y46600D01*
D18*
X76200Y13942D03*
D17*
X76200Y12700D01*
X152400Y12700D02*
X156800Y17100D01*
X156800Y30600D01*
D18*
X330200Y152400D03*
X279400Y25400D03*
D17*
X279400Y152400D01*
X330200Y152400D01*
D18*
X152400Y13942D03*
D17*
X77442Y13942D01*
X76200Y12700D01*
X256032Y173736D02*
X256032Y205740D01*
X265176Y214884D01*
X256032Y173736D02*
X254800Y172600D01*
X265176Y214884D02*
X266700Y215900D01*
X240030Y192024D02*
X240030Y173736D01*
X240030Y192024D02*
X217170Y214884D01*
X240030Y173736D02*
X240800Y172600D01*
X217170Y214884D02*
X215900Y215900D01*
X75438Y228600D02*
X38862Y192024D01*
X38862Y173736D01*
X128016Y173736D02*
X128800Y172600D01*
X38862Y173736D02*
X38100Y172720D01*
X75438Y228600D02*
X101600Y228600D01*
X101600Y241300D01*
X127000Y241300D01*
X139700Y228600D01*
X139700Y190500D01*
X127000Y190500D01*
X128016Y189484D01*
X128016Y173736D01*
D18*
X190500Y13942D03*
D17*
X184800Y19642D01*
X184800Y30600D01*
X98298Y157734D02*
X98298Y169164D01*
X100584Y171450D01*
X98298Y157734D02*
X96800Y157600D01*
X100584Y171450D02*
X100800Y172600D01*
X102870Y173736D02*
X102870Y203454D01*
X114300Y214884D01*
X102870Y173736D02*
X100800Y172600D01*
X114300Y214884D02*
X114300Y215900D01*
M02*
