M48
;GenerationSoftware,Autodesk,EAGLE,9.1.0*%
;CreationDate,2019-01-28T13:00:55Z*%
FMAT,2
ICI,OFF
METRIC,TZ,000.000
T2C0.350
T1C0.813
%
G90
M71
T1
X11430Y21590
X16510Y21590
X21590Y21590
X26670Y21590
T2
X5080Y3810
X38100Y16510
X12192Y9144
X12192Y9144
X12192Y9144
X30480Y13208
X36576Y11176
X32512Y7112
X29464Y10160
X28648Y4064
X27232Y4064
X7620Y1394
X33020Y15240
X27940Y2540
X15240Y1394
X19050Y1394
M30