G04 EAGLE Gerber X2 export*
%TF.Part,Single*%
%TF.FileFunction,Legend,Top,1*%
%TF.FilePolarity,Positive*%
%TF.GenerationSoftware,Autodesk,EAGLE,9.1.0*%
%TF.CreationDate,2019-01-28T13:00:55Z*%
G75*
%MOMM*%
%FSLAX34Y34*%
%LPD*%
%AMOC8*
5,1,8,0,0,1.08239X$1,22.5*%
G01*
%ADD10C,0.127000*%
%ADD11C,0.609600*%
%ADD12C,0.152400*%
%ADD13C,0.177800*%


D10*
X127000Y222250D02*
X152400Y222250D01*
X152400Y209550D02*
X127000Y209550D01*
X152400Y215900D02*
X157480Y215900D01*
X152400Y215900D02*
X152400Y222250D01*
X127000Y215900D02*
X121920Y215900D01*
X127000Y215900D02*
X127000Y222250D01*
X152400Y215900D02*
X152400Y209550D01*
X127000Y209550D02*
X127000Y215900D01*
X130810Y226695D02*
X130810Y238125D01*
X127635Y238125D02*
X133985Y238125D01*
X138767Y238125D02*
X138767Y226695D01*
X138767Y238125D02*
X141942Y238125D01*
X142053Y238123D01*
X142163Y238117D01*
X142274Y238108D01*
X142384Y238094D01*
X142493Y238077D01*
X142602Y238056D01*
X142710Y238031D01*
X142817Y238002D01*
X142923Y237970D01*
X143028Y237934D01*
X143131Y237894D01*
X143233Y237851D01*
X143334Y237804D01*
X143433Y237753D01*
X143530Y237700D01*
X143624Y237643D01*
X143717Y237582D01*
X143808Y237519D01*
X143897Y237452D01*
X143983Y237382D01*
X144066Y237309D01*
X144148Y237234D01*
X144226Y237156D01*
X144301Y237074D01*
X144374Y236991D01*
X144444Y236905D01*
X144511Y236816D01*
X144574Y236725D01*
X144635Y236632D01*
X144692Y236537D01*
X144745Y236441D01*
X144796Y236342D01*
X144843Y236241D01*
X144886Y236139D01*
X144926Y236036D01*
X144962Y235931D01*
X144994Y235825D01*
X145023Y235718D01*
X145048Y235610D01*
X145069Y235501D01*
X145086Y235392D01*
X145100Y235282D01*
X145109Y235171D01*
X145115Y235061D01*
X145117Y234950D01*
X145115Y234839D01*
X145109Y234729D01*
X145100Y234618D01*
X145086Y234508D01*
X145069Y234399D01*
X145048Y234290D01*
X145023Y234182D01*
X144994Y234075D01*
X144962Y233969D01*
X144926Y233864D01*
X144886Y233761D01*
X144843Y233659D01*
X144796Y233558D01*
X144745Y233459D01*
X144692Y233362D01*
X144635Y233268D01*
X144574Y233175D01*
X144511Y233084D01*
X144444Y232995D01*
X144374Y232909D01*
X144301Y232826D01*
X144226Y232744D01*
X144148Y232666D01*
X144066Y232591D01*
X143983Y232518D01*
X143897Y232448D01*
X143808Y232381D01*
X143717Y232318D01*
X143624Y232257D01*
X143529Y232200D01*
X143433Y232147D01*
X143334Y232096D01*
X143233Y232049D01*
X143131Y232006D01*
X143028Y231966D01*
X142923Y231930D01*
X142817Y231898D01*
X142710Y231869D01*
X142602Y231844D01*
X142493Y231823D01*
X142384Y231806D01*
X142274Y231792D01*
X142163Y231783D01*
X142053Y231777D01*
X141942Y231775D01*
X138767Y231775D01*
X142577Y231775D02*
X145117Y226695D01*
X150114Y235585D02*
X153289Y238125D01*
X153289Y226695D01*
X150114Y226695D02*
X156464Y226695D01*
X228600Y222250D02*
X254000Y222250D01*
X254000Y209550D02*
X228600Y209550D01*
X254000Y215900D02*
X259080Y215900D01*
X254000Y215900D02*
X254000Y222250D01*
X228600Y215900D02*
X223520Y215900D01*
X228600Y215900D02*
X228600Y222250D01*
X254000Y215900D02*
X254000Y209550D01*
X228600Y209550D02*
X228600Y215900D01*
X232410Y226695D02*
X232410Y238125D01*
X229235Y238125D02*
X235585Y238125D01*
X240367Y238125D02*
X240367Y226695D01*
X240367Y238125D02*
X243542Y238125D01*
X243653Y238123D01*
X243763Y238117D01*
X243874Y238108D01*
X243984Y238094D01*
X244093Y238077D01*
X244202Y238056D01*
X244310Y238031D01*
X244417Y238002D01*
X244523Y237970D01*
X244628Y237934D01*
X244731Y237894D01*
X244833Y237851D01*
X244934Y237804D01*
X245033Y237753D01*
X245130Y237700D01*
X245224Y237643D01*
X245317Y237582D01*
X245408Y237519D01*
X245497Y237452D01*
X245583Y237382D01*
X245666Y237309D01*
X245748Y237234D01*
X245826Y237156D01*
X245901Y237074D01*
X245974Y236991D01*
X246044Y236905D01*
X246111Y236816D01*
X246174Y236725D01*
X246235Y236632D01*
X246292Y236537D01*
X246345Y236441D01*
X246396Y236342D01*
X246443Y236241D01*
X246486Y236139D01*
X246526Y236036D01*
X246562Y235931D01*
X246594Y235825D01*
X246623Y235718D01*
X246648Y235610D01*
X246669Y235501D01*
X246686Y235392D01*
X246700Y235282D01*
X246709Y235171D01*
X246715Y235061D01*
X246717Y234950D01*
X246715Y234839D01*
X246709Y234729D01*
X246700Y234618D01*
X246686Y234508D01*
X246669Y234399D01*
X246648Y234290D01*
X246623Y234182D01*
X246594Y234075D01*
X246562Y233969D01*
X246526Y233864D01*
X246486Y233761D01*
X246443Y233659D01*
X246396Y233558D01*
X246345Y233459D01*
X246292Y233362D01*
X246235Y233268D01*
X246174Y233175D01*
X246111Y233084D01*
X246044Y232995D01*
X245974Y232909D01*
X245901Y232826D01*
X245826Y232744D01*
X245748Y232666D01*
X245666Y232591D01*
X245583Y232518D01*
X245497Y232448D01*
X245408Y232381D01*
X245317Y232318D01*
X245224Y232257D01*
X245129Y232200D01*
X245033Y232147D01*
X244934Y232096D01*
X244833Y232049D01*
X244731Y232006D01*
X244628Y231966D01*
X244523Y231930D01*
X244417Y231898D01*
X244310Y231869D01*
X244202Y231844D01*
X244093Y231823D01*
X243984Y231806D01*
X243874Y231792D01*
X243763Y231783D01*
X243653Y231777D01*
X243542Y231775D01*
X240367Y231775D01*
X244177Y231775D02*
X246717Y226695D01*
X258064Y235268D02*
X258062Y235372D01*
X258056Y235477D01*
X258047Y235581D01*
X258034Y235684D01*
X258016Y235787D01*
X257996Y235889D01*
X257971Y235991D01*
X257943Y236091D01*
X257911Y236191D01*
X257875Y236289D01*
X257836Y236386D01*
X257794Y236481D01*
X257748Y236575D01*
X257698Y236667D01*
X257646Y236757D01*
X257590Y236845D01*
X257530Y236931D01*
X257468Y237015D01*
X257403Y237096D01*
X257335Y237175D01*
X257263Y237252D01*
X257190Y237325D01*
X257113Y237397D01*
X257034Y237465D01*
X256953Y237530D01*
X256869Y237592D01*
X256783Y237652D01*
X256695Y237708D01*
X256605Y237760D01*
X256513Y237810D01*
X256419Y237856D01*
X256324Y237898D01*
X256227Y237937D01*
X256129Y237973D01*
X256029Y238005D01*
X255929Y238033D01*
X255827Y238058D01*
X255725Y238078D01*
X255622Y238096D01*
X255519Y238109D01*
X255415Y238118D01*
X255310Y238124D01*
X255206Y238126D01*
X255206Y238125D02*
X255088Y238123D01*
X254969Y238117D01*
X254851Y238108D01*
X254734Y238095D01*
X254617Y238077D01*
X254500Y238057D01*
X254384Y238032D01*
X254269Y238004D01*
X254156Y237971D01*
X254043Y237936D01*
X253931Y237896D01*
X253821Y237854D01*
X253712Y237807D01*
X253604Y237757D01*
X253499Y237704D01*
X253395Y237647D01*
X253293Y237587D01*
X253193Y237524D01*
X253095Y237457D01*
X252999Y237388D01*
X252906Y237315D01*
X252815Y237239D01*
X252726Y237161D01*
X252640Y237079D01*
X252557Y236995D01*
X252476Y236909D01*
X252399Y236819D01*
X252324Y236728D01*
X252252Y236634D01*
X252183Y236537D01*
X252118Y236439D01*
X252055Y236338D01*
X251996Y236235D01*
X251940Y236131D01*
X251888Y236025D01*
X251839Y235917D01*
X251794Y235808D01*
X251752Y235697D01*
X251714Y235585D01*
X257112Y233046D02*
X257188Y233121D01*
X257263Y233200D01*
X257334Y233281D01*
X257403Y233365D01*
X257468Y233451D01*
X257530Y233539D01*
X257590Y233629D01*
X257646Y233721D01*
X257699Y233816D01*
X257748Y233912D01*
X257794Y234010D01*
X257837Y234109D01*
X257876Y234210D01*
X257911Y234312D01*
X257943Y234415D01*
X257971Y234519D01*
X257996Y234624D01*
X258017Y234731D01*
X258034Y234837D01*
X258047Y234944D01*
X258056Y235052D01*
X258062Y235160D01*
X258064Y235268D01*
X257111Y233045D02*
X251714Y226695D01*
X258064Y226695D01*
X267800Y181600D02*
X87800Y181600D01*
X267800Y181600D02*
X267800Y21600D01*
X87800Y21600D01*
X87800Y181600D01*
D11*
X78800Y157600D02*
X78802Y157677D01*
X78808Y157754D01*
X78818Y157831D01*
X78832Y157907D01*
X78849Y157982D01*
X78871Y158056D01*
X78896Y158129D01*
X78926Y158201D01*
X78958Y158271D01*
X78995Y158339D01*
X79034Y158405D01*
X79077Y158469D01*
X79124Y158531D01*
X79173Y158590D01*
X79226Y158647D01*
X79281Y158701D01*
X79339Y158752D01*
X79400Y158800D01*
X79463Y158845D01*
X79528Y158886D01*
X79595Y158924D01*
X79664Y158959D01*
X79735Y158989D01*
X79807Y159017D01*
X79881Y159040D01*
X79955Y159060D01*
X80031Y159076D01*
X80107Y159088D01*
X80184Y159096D01*
X80261Y159100D01*
X80339Y159100D01*
X80416Y159096D01*
X80493Y159088D01*
X80569Y159076D01*
X80645Y159060D01*
X80719Y159040D01*
X80793Y159017D01*
X80865Y158989D01*
X80936Y158959D01*
X81005Y158924D01*
X81072Y158886D01*
X81137Y158845D01*
X81200Y158800D01*
X81261Y158752D01*
X81319Y158701D01*
X81374Y158647D01*
X81427Y158590D01*
X81476Y158531D01*
X81523Y158469D01*
X81566Y158405D01*
X81605Y158339D01*
X81642Y158271D01*
X81674Y158201D01*
X81704Y158129D01*
X81729Y158056D01*
X81751Y157982D01*
X81768Y157907D01*
X81782Y157831D01*
X81792Y157754D01*
X81798Y157677D01*
X81800Y157600D01*
X81798Y157523D01*
X81792Y157446D01*
X81782Y157369D01*
X81768Y157293D01*
X81751Y157218D01*
X81729Y157144D01*
X81704Y157071D01*
X81674Y156999D01*
X81642Y156929D01*
X81605Y156861D01*
X81566Y156795D01*
X81523Y156731D01*
X81476Y156669D01*
X81427Y156610D01*
X81374Y156553D01*
X81319Y156499D01*
X81261Y156448D01*
X81200Y156400D01*
X81137Y156355D01*
X81072Y156314D01*
X81005Y156276D01*
X80936Y156241D01*
X80865Y156211D01*
X80793Y156183D01*
X80719Y156160D01*
X80645Y156140D01*
X80569Y156124D01*
X80493Y156112D01*
X80416Y156104D01*
X80339Y156100D01*
X80261Y156100D01*
X80184Y156104D01*
X80107Y156112D01*
X80031Y156124D01*
X79955Y156140D01*
X79881Y156160D01*
X79807Y156183D01*
X79735Y156211D01*
X79664Y156241D01*
X79595Y156276D01*
X79528Y156314D01*
X79463Y156355D01*
X79400Y156400D01*
X79339Y156448D01*
X79281Y156499D01*
X79226Y156553D01*
X79173Y156610D01*
X79124Y156669D01*
X79077Y156731D01*
X79034Y156795D01*
X78995Y156861D01*
X78958Y156929D01*
X78926Y156999D01*
X78896Y157071D01*
X78871Y157144D01*
X78849Y157218D01*
X78832Y157293D01*
X78818Y157369D01*
X78808Y157446D01*
X78802Y157523D01*
X78800Y157600D01*
D12*
X89062Y186696D02*
X89062Y191466D01*
X89062Y186696D02*
X89064Y186611D01*
X89070Y186527D01*
X89080Y186443D01*
X89093Y186359D01*
X89111Y186276D01*
X89132Y186194D01*
X89157Y186113D01*
X89186Y186033D01*
X89218Y185955D01*
X89254Y185879D01*
X89294Y185804D01*
X89337Y185731D01*
X89383Y185660D01*
X89432Y185591D01*
X89485Y185524D01*
X89541Y185460D01*
X89599Y185399D01*
X89660Y185341D01*
X89724Y185285D01*
X89791Y185232D01*
X89860Y185183D01*
X89931Y185137D01*
X90004Y185094D01*
X90079Y185054D01*
X90155Y185018D01*
X90233Y184986D01*
X90313Y184957D01*
X90394Y184932D01*
X90476Y184911D01*
X90559Y184893D01*
X90643Y184880D01*
X90727Y184870D01*
X90811Y184864D01*
X90896Y184862D01*
X90981Y184864D01*
X91065Y184870D01*
X91149Y184880D01*
X91233Y184893D01*
X91316Y184911D01*
X91398Y184932D01*
X91479Y184957D01*
X91559Y184986D01*
X91637Y185018D01*
X91713Y185054D01*
X91788Y185094D01*
X91861Y185137D01*
X91932Y185183D01*
X92001Y185232D01*
X92068Y185285D01*
X92132Y185341D01*
X92193Y185399D01*
X92251Y185460D01*
X92307Y185524D01*
X92360Y185591D01*
X92409Y185660D01*
X92455Y185731D01*
X92498Y185804D01*
X92538Y185879D01*
X92574Y185955D01*
X92606Y186033D01*
X92635Y186113D01*
X92660Y186194D01*
X92681Y186276D01*
X92699Y186359D01*
X92712Y186443D01*
X92722Y186527D01*
X92728Y186611D01*
X92730Y186696D01*
X92731Y186696D02*
X92731Y191466D01*
X96621Y189998D02*
X98455Y191466D01*
X98455Y184862D01*
X96621Y184862D02*
X100290Y184862D01*
D13*
X98679Y158877D02*
X107061Y153289D01*
X107061Y158877D02*
X98679Y153289D01*
X100542Y162899D02*
X98679Y165227D01*
X107061Y165227D01*
X107061Y162899D02*
X107061Y167555D01*
X-29549Y158877D02*
X-31877Y153289D01*
X-27220Y153289D02*
X-29549Y158877D01*
X-26289Y163842D02*
X-34671Y163842D01*
X-26289Y163842D02*
X-26289Y167567D01*
X-26289Y170967D02*
X-34671Y173761D01*
X-26289Y176555D01*
X-28385Y175857D02*
X-28385Y171666D01*
X-30946Y181098D02*
X-30946Y183426D01*
X-30945Y183426D02*
X-30943Y183521D01*
X-30937Y183616D01*
X-30928Y183710D01*
X-30914Y183804D01*
X-30897Y183898D01*
X-30876Y183990D01*
X-30851Y184082D01*
X-30822Y184172D01*
X-30790Y184262D01*
X-30754Y184350D01*
X-30714Y184436D01*
X-30672Y184521D01*
X-30625Y184604D01*
X-30575Y184685D01*
X-30522Y184763D01*
X-30466Y184840D01*
X-30407Y184914D01*
X-30345Y184986D01*
X-30280Y185055D01*
X-30212Y185122D01*
X-30142Y185185D01*
X-30068Y185246D01*
X-29993Y185304D01*
X-29915Y185358D01*
X-29835Y185410D01*
X-29753Y185458D01*
X-29670Y185502D01*
X-29584Y185544D01*
X-29497Y185581D01*
X-29408Y185615D01*
X-29318Y185646D01*
X-29227Y185673D01*
X-29135Y185696D01*
X-29042Y185715D01*
X-28948Y185730D01*
X-28854Y185742D01*
X-28759Y185750D01*
X-28664Y185754D01*
X-28570Y185754D01*
X-28475Y185750D01*
X-28380Y185742D01*
X-28286Y185730D01*
X-28192Y185715D01*
X-28099Y185696D01*
X-28007Y185673D01*
X-27916Y185646D01*
X-27826Y185615D01*
X-27737Y185581D01*
X-27650Y185544D01*
X-27564Y185502D01*
X-27481Y185458D01*
X-27399Y185410D01*
X-27319Y185358D01*
X-27241Y185304D01*
X-27166Y185246D01*
X-27092Y185185D01*
X-27022Y185122D01*
X-26954Y185055D01*
X-26889Y184986D01*
X-26827Y184914D01*
X-26768Y184840D01*
X-26712Y184763D01*
X-26659Y184685D01*
X-26609Y184604D01*
X-26562Y184521D01*
X-26520Y184436D01*
X-26480Y184350D01*
X-26444Y184262D01*
X-26412Y184172D01*
X-26383Y184082D01*
X-26358Y183990D01*
X-26337Y183898D01*
X-26320Y183804D01*
X-26306Y183710D01*
X-26297Y183616D01*
X-26291Y183521D01*
X-26289Y183426D01*
X-26289Y181098D01*
X-34671Y181098D01*
X-34671Y183426D01*
X-34669Y183511D01*
X-34663Y183595D01*
X-34654Y183680D01*
X-34640Y183763D01*
X-34623Y183846D01*
X-34602Y183929D01*
X-34577Y184010D01*
X-34549Y184090D01*
X-34517Y184168D01*
X-34481Y184245D01*
X-34442Y184321D01*
X-34400Y184394D01*
X-34354Y184465D01*
X-34305Y184535D01*
X-34253Y184602D01*
X-34198Y184666D01*
X-34140Y184728D01*
X-34080Y184788D01*
X-34016Y184844D01*
X-33951Y184898D01*
X-33882Y184948D01*
X-33812Y184995D01*
X-33740Y185039D01*
X-33665Y185080D01*
X-33589Y185117D01*
X-33511Y185151D01*
X-33432Y185181D01*
X-33351Y185208D01*
X-33270Y185231D01*
X-33187Y185250D01*
X-33104Y185265D01*
X-33020Y185277D01*
X-32935Y185285D01*
X-32850Y185289D01*
X-32766Y185289D01*
X-32681Y185285D01*
X-32596Y185277D01*
X-32512Y185265D01*
X-32429Y185250D01*
X-32346Y185231D01*
X-32265Y185208D01*
X-32184Y185181D01*
X-32105Y185151D01*
X-32027Y185117D01*
X-31951Y185080D01*
X-31877Y185039D01*
X-31804Y184995D01*
X-31734Y184948D01*
X-31665Y184898D01*
X-31600Y184844D01*
X-31536Y184788D01*
X-31476Y184728D01*
X-31418Y184666D01*
X-31363Y184602D01*
X-31311Y184535D01*
X-31262Y184465D01*
X-31216Y184394D01*
X-31174Y184321D01*
X-31135Y184245D01*
X-31099Y184168D01*
X-31067Y184090D01*
X-31039Y184010D01*
X-31014Y183929D01*
X-30993Y183846D01*
X-30976Y183763D01*
X-30962Y183680D01*
X-30953Y183595D01*
X-30947Y183511D01*
X-30945Y183426D01*
X-26289Y190055D02*
X-26289Y193780D01*
X-26289Y190055D02*
X-34671Y190055D01*
X-34671Y193780D01*
X-30946Y192849D02*
X-30946Y190055D01*
X-34671Y197979D02*
X-26289Y197979D01*
X-26289Y201705D01*
M02*
