G04 EAGLE Gerber X2 export*
%TF.Part,Single*%
%TF.FileFunction,Legend,Bot,1*%
%TF.FilePolarity,Positive*%
%TF.GenerationSoftware,Autodesk,EAGLE,9.1.0*%
%TF.CreationDate,2019-01-28T13:00:55Z*%
G75*
%MOMM*%
%FSLAX34Y34*%
%LPD*%
%AMOC8*
5,1,8,0,0,1.08239X$1,22.5*%
G01*
%ADD10C,0.203200*%
%ADD11C,0.152400*%
%ADD12C,0.101600*%


D10*
X366600Y144200D02*
X366600Y135200D01*
X344600Y135200D02*
X344600Y144200D01*
X369600Y136200D02*
X369602Y136263D01*
X369608Y136325D01*
X369618Y136387D01*
X369631Y136449D01*
X369649Y136509D01*
X369670Y136568D01*
X369695Y136626D01*
X369724Y136682D01*
X369756Y136736D01*
X369791Y136788D01*
X369829Y136837D01*
X369871Y136885D01*
X369915Y136929D01*
X369963Y136971D01*
X370012Y137009D01*
X370064Y137044D01*
X370118Y137076D01*
X370174Y137105D01*
X370232Y137130D01*
X370291Y137151D01*
X370351Y137169D01*
X370413Y137182D01*
X370475Y137192D01*
X370537Y137198D01*
X370600Y137200D01*
X370663Y137198D01*
X370725Y137192D01*
X370787Y137182D01*
X370849Y137169D01*
X370909Y137151D01*
X370968Y137130D01*
X371026Y137105D01*
X371082Y137076D01*
X371136Y137044D01*
X371188Y137009D01*
X371237Y136971D01*
X371285Y136929D01*
X371329Y136885D01*
X371371Y136837D01*
X371409Y136788D01*
X371444Y136736D01*
X371476Y136682D01*
X371505Y136626D01*
X371530Y136568D01*
X371551Y136509D01*
X371569Y136449D01*
X371582Y136387D01*
X371592Y136325D01*
X371598Y136263D01*
X371600Y136200D01*
X371598Y136137D01*
X371592Y136075D01*
X371582Y136013D01*
X371569Y135951D01*
X371551Y135891D01*
X371530Y135832D01*
X371505Y135774D01*
X371476Y135718D01*
X371444Y135664D01*
X371409Y135612D01*
X371371Y135563D01*
X371329Y135515D01*
X371285Y135471D01*
X371237Y135429D01*
X371188Y135391D01*
X371136Y135356D01*
X371082Y135324D01*
X371026Y135295D01*
X370968Y135270D01*
X370909Y135249D01*
X370849Y135231D01*
X370787Y135218D01*
X370725Y135208D01*
X370663Y135202D01*
X370600Y135200D01*
X370537Y135202D01*
X370475Y135208D01*
X370413Y135218D01*
X370351Y135231D01*
X370291Y135249D01*
X370232Y135270D01*
X370174Y135295D01*
X370118Y135324D01*
X370064Y135356D01*
X370012Y135391D01*
X369963Y135429D01*
X369915Y135471D01*
X369871Y135515D01*
X369829Y135563D01*
X369791Y135612D01*
X369756Y135664D01*
X369724Y135718D01*
X369695Y135774D01*
X369670Y135832D01*
X369649Y135891D01*
X369631Y135951D01*
X369618Y136013D01*
X369608Y136075D01*
X369602Y136137D01*
X369600Y136200D01*
D11*
X338328Y141732D02*
X338328Y148336D01*
X336494Y148336D01*
X336409Y148334D01*
X336325Y148328D01*
X336241Y148318D01*
X336157Y148305D01*
X336074Y148287D01*
X335992Y148266D01*
X335911Y148241D01*
X335831Y148212D01*
X335753Y148180D01*
X335677Y148144D01*
X335602Y148104D01*
X335529Y148061D01*
X335458Y148015D01*
X335389Y147966D01*
X335322Y147913D01*
X335258Y147857D01*
X335197Y147799D01*
X335139Y147738D01*
X335083Y147674D01*
X335030Y147607D01*
X334981Y147538D01*
X334935Y147467D01*
X334892Y147394D01*
X334852Y147319D01*
X334816Y147243D01*
X334784Y147165D01*
X334755Y147085D01*
X334730Y147004D01*
X334709Y146922D01*
X334691Y146839D01*
X334678Y146755D01*
X334668Y146671D01*
X334662Y146587D01*
X334660Y146502D01*
X334659Y146502D02*
X334659Y143566D01*
X334660Y143566D02*
X334662Y143481D01*
X334668Y143397D01*
X334678Y143313D01*
X334691Y143229D01*
X334709Y143146D01*
X334730Y143064D01*
X334755Y142983D01*
X334784Y142903D01*
X334816Y142825D01*
X334852Y142749D01*
X334892Y142674D01*
X334935Y142601D01*
X334981Y142530D01*
X335030Y142461D01*
X335083Y142394D01*
X335139Y142330D01*
X335197Y142269D01*
X335258Y142211D01*
X335322Y142155D01*
X335389Y142102D01*
X335458Y142053D01*
X335529Y142007D01*
X335602Y141964D01*
X335677Y141924D01*
X335753Y141888D01*
X335831Y141856D01*
X335911Y141827D01*
X335992Y141802D01*
X336074Y141781D01*
X336157Y141763D01*
X336241Y141750D01*
X336325Y141740D01*
X336409Y141734D01*
X336494Y141732D01*
X338328Y141732D01*
X328751Y148336D02*
X328672Y148334D01*
X328594Y148329D01*
X328516Y148319D01*
X328439Y148306D01*
X328362Y148289D01*
X328286Y148269D01*
X328211Y148245D01*
X328137Y148218D01*
X328065Y148187D01*
X327994Y148152D01*
X327926Y148115D01*
X327858Y148074D01*
X327793Y148030D01*
X327730Y147983D01*
X327670Y147933D01*
X327612Y147880D01*
X327556Y147824D01*
X327503Y147766D01*
X327453Y147706D01*
X327406Y147643D01*
X327362Y147578D01*
X327321Y147511D01*
X327284Y147442D01*
X327249Y147371D01*
X327218Y147299D01*
X327191Y147225D01*
X327167Y147150D01*
X327147Y147074D01*
X327130Y146997D01*
X327117Y146920D01*
X327107Y146842D01*
X327102Y146764D01*
X327100Y146685D01*
X328751Y148336D02*
X328840Y148334D01*
X328929Y148329D01*
X329017Y148319D01*
X329105Y148306D01*
X329192Y148290D01*
X329279Y148269D01*
X329364Y148245D01*
X329449Y148218D01*
X329532Y148187D01*
X329614Y148152D01*
X329695Y148114D01*
X329774Y148073D01*
X329850Y148029D01*
X329926Y147981D01*
X329999Y147930D01*
X330069Y147877D01*
X330138Y147820D01*
X330204Y147760D01*
X330267Y147698D01*
X330328Y147633D01*
X330386Y147566D01*
X330441Y147496D01*
X330494Y147424D01*
X330543Y147350D01*
X330589Y147274D01*
X330631Y147196D01*
X330671Y147116D01*
X330707Y147035D01*
X330740Y146952D01*
X330769Y146868D01*
X327650Y145401D02*
X327594Y145457D01*
X327540Y145516D01*
X327489Y145577D01*
X327440Y145641D01*
X327395Y145706D01*
X327352Y145774D01*
X327313Y145843D01*
X327276Y145914D01*
X327243Y145987D01*
X327214Y146061D01*
X327187Y146136D01*
X327164Y146212D01*
X327145Y146290D01*
X327129Y146368D01*
X327116Y146446D01*
X327107Y146526D01*
X327102Y146605D01*
X327100Y146685D01*
X327650Y145401D02*
X330769Y141732D01*
X327100Y141732D01*
D10*
X340346Y84500D02*
X340346Y42500D01*
X370854Y42500D02*
X370854Y84500D01*
D11*
X331922Y66721D02*
X331848Y66719D01*
X331773Y66713D01*
X331700Y66704D01*
X331626Y66691D01*
X331554Y66674D01*
X331483Y66654D01*
X331412Y66630D01*
X331343Y66602D01*
X331276Y66571D01*
X331210Y66537D01*
X331145Y66499D01*
X331083Y66458D01*
X331023Y66414D01*
X330966Y66367D01*
X330911Y66317D01*
X330858Y66264D01*
X330808Y66209D01*
X330761Y66152D01*
X330717Y66092D01*
X330676Y66030D01*
X330638Y65965D01*
X330604Y65899D01*
X330573Y65832D01*
X330545Y65763D01*
X330521Y65692D01*
X330501Y65621D01*
X330484Y65549D01*
X330471Y65475D01*
X330462Y65402D01*
X330456Y65327D01*
X330454Y65253D01*
X330456Y65142D01*
X330462Y65031D01*
X330472Y64920D01*
X330486Y64809D01*
X330504Y64700D01*
X330526Y64591D01*
X330551Y64482D01*
X330581Y64375D01*
X330614Y64269D01*
X330652Y64164D01*
X330692Y64061D01*
X330737Y63959D01*
X330785Y63859D01*
X330837Y63760D01*
X330892Y63664D01*
X330951Y63569D01*
X331013Y63477D01*
X331079Y63387D01*
X331147Y63299D01*
X331219Y63214D01*
X331294Y63132D01*
X331371Y63052D01*
X335590Y63235D02*
X335664Y63237D01*
X335739Y63243D01*
X335812Y63252D01*
X335886Y63265D01*
X335958Y63282D01*
X336029Y63302D01*
X336100Y63326D01*
X336169Y63354D01*
X336236Y63385D01*
X336302Y63419D01*
X336367Y63457D01*
X336429Y63498D01*
X336489Y63542D01*
X336546Y63589D01*
X336601Y63639D01*
X336654Y63692D01*
X336704Y63747D01*
X336751Y63804D01*
X336795Y63864D01*
X336836Y63926D01*
X336874Y63991D01*
X336908Y64057D01*
X336939Y64124D01*
X336967Y64193D01*
X336991Y64264D01*
X337011Y64335D01*
X337028Y64407D01*
X337041Y64481D01*
X337050Y64554D01*
X337056Y64629D01*
X337058Y64703D01*
X337056Y64807D01*
X337050Y64911D01*
X337040Y65015D01*
X337027Y65118D01*
X337009Y65221D01*
X336987Y65323D01*
X336962Y65424D01*
X336933Y65524D01*
X336900Y65623D01*
X336863Y65720D01*
X336823Y65816D01*
X336779Y65911D01*
X336731Y66003D01*
X336681Y66094D01*
X336626Y66183D01*
X336569Y66270D01*
X336508Y66354D01*
X334305Y63969D02*
X334344Y63906D01*
X334386Y63846D01*
X334431Y63788D01*
X334479Y63731D01*
X334530Y63678D01*
X334583Y63627D01*
X334638Y63578D01*
X334696Y63533D01*
X334756Y63490D01*
X334818Y63450D01*
X334882Y63414D01*
X334948Y63380D01*
X335016Y63350D01*
X335084Y63323D01*
X335154Y63300D01*
X335225Y63280D01*
X335297Y63264D01*
X335370Y63251D01*
X335443Y63242D01*
X335516Y63237D01*
X335590Y63235D01*
X333207Y65987D02*
X333168Y66050D01*
X333126Y66110D01*
X333081Y66169D01*
X333033Y66225D01*
X332982Y66278D01*
X332929Y66329D01*
X332874Y66378D01*
X332816Y66423D01*
X332756Y66466D01*
X332694Y66506D01*
X332630Y66542D01*
X332564Y66576D01*
X332496Y66606D01*
X332428Y66633D01*
X332358Y66656D01*
X332287Y66676D01*
X332215Y66692D01*
X332142Y66705D01*
X332069Y66714D01*
X331996Y66719D01*
X331922Y66721D01*
X333206Y65987D02*
X334306Y63969D01*
X337058Y69998D02*
X330454Y71465D01*
X334857Y72933D01*
X330454Y74401D01*
X337058Y75868D01*
X335590Y79389D02*
X337058Y81224D01*
X330454Y81224D01*
X330454Y83058D02*
X330454Y79389D01*
D10*
X310488Y51433D02*
X286859Y51433D01*
X310488Y51433D02*
X310488Y26349D01*
X266865Y26349D01*
X266865Y176851D01*
X310488Y176851D01*
X310488Y148132D01*
X286859Y148132D01*
X286859Y51433D01*
X286859Y42708D01*
X267228Y42345D02*
X310125Y42345D01*
X284314Y35074D02*
X284314Y26713D01*
X284314Y35074D02*
X303945Y35074D01*
X303945Y26713D01*
X301400Y26713D02*
X301400Y32529D01*
X303581Y34710D01*
X287223Y32165D02*
X287223Y26713D01*
X287223Y32165D02*
X284678Y34710D01*
X287223Y32529D02*
X301037Y32529D01*
X289767Y25622D02*
X289767Y18715D01*
X281043Y19806D01*
X241418Y15443D01*
X230875Y15443D01*
X230875Y20533D01*
X85827Y20533D01*
X85827Y15443D01*
X10940Y15443D01*
X10940Y51433D01*
X69105Y51433D01*
X69105Y147768D01*
X10940Y147768D01*
X10940Y187393D01*
X59653Y187393D01*
X85827Y187393D01*
X85827Y182304D01*
X230875Y182304D01*
X230875Y187030D01*
X241418Y187030D01*
X281043Y183394D01*
X289767Y184121D01*
X289767Y177214D01*
X281043Y177214D02*
X281043Y183031D01*
X303945Y176487D02*
X303945Y167762D01*
X284678Y167762D01*
X284678Y176487D01*
X287586Y176487D02*
X287586Y170671D01*
X285041Y168126D01*
X301400Y170671D02*
X301400Y176487D01*
X301400Y170671D02*
X301400Y170307D01*
X303581Y168126D01*
X301400Y170671D02*
X287950Y170671D01*
X267228Y160492D02*
X309761Y160492D01*
X286859Y159765D02*
X286859Y148495D01*
X283587Y160855D02*
X283587Y176487D01*
X283224Y41981D02*
X283224Y26713D01*
X289404Y177578D02*
X243599Y177578D01*
X241418Y175397D01*
X241418Y28530D01*
X241420Y28424D01*
X241426Y28318D01*
X241435Y28212D01*
X241449Y28107D01*
X241466Y28002D01*
X241488Y27898D01*
X241513Y27794D01*
X241541Y27692D01*
X241574Y27591D01*
X241610Y27491D01*
X241650Y27393D01*
X241693Y27296D01*
X241740Y27200D01*
X241790Y27107D01*
X241844Y27015D01*
X241901Y26925D01*
X241961Y26838D01*
X242024Y26753D01*
X242091Y26670D01*
X242160Y26589D01*
X242233Y26512D01*
X242308Y26437D01*
X242385Y26364D01*
X242466Y26295D01*
X242549Y26228D01*
X242634Y26165D01*
X242721Y26105D01*
X242811Y26048D01*
X242903Y25994D01*
X242996Y25944D01*
X243092Y25897D01*
X243189Y25854D01*
X243287Y25814D01*
X243387Y25778D01*
X243488Y25745D01*
X243590Y25717D01*
X243694Y25692D01*
X243798Y25670D01*
X243903Y25653D01*
X244008Y25639D01*
X244114Y25630D01*
X244220Y25624D01*
X244326Y25622D01*
X289404Y25622D01*
X251597Y25259D02*
X251597Y19079D01*
X253051Y16898D01*
X251233Y19442D02*
X241418Y18352D01*
X241418Y15807D01*
X281043Y20169D02*
X281043Y25259D01*
X255959Y25259D02*
X255959Y17625D01*
X266501Y38346D02*
X241781Y38346D01*
X241781Y164491D02*
X266501Y164491D01*
X255959Y177941D02*
X255959Y185212D01*
X251233Y183758D02*
X251233Y177941D01*
X251233Y183758D02*
X252687Y185575D01*
X250870Y183394D02*
X241054Y184485D01*
X231239Y184485D01*
X241054Y184848D02*
X241054Y186666D01*
X241418Y18352D02*
X231239Y18352D01*
X241781Y118686D02*
X245417Y118686D01*
X245417Y107780D02*
X242145Y107780D01*
X241781Y97238D02*
X243962Y97238D01*
X244046Y97236D01*
X244130Y97230D01*
X244213Y97221D01*
X244296Y97207D01*
X244378Y97190D01*
X244460Y97169D01*
X244540Y97144D01*
X244619Y97115D01*
X244696Y97083D01*
X244772Y97047D01*
X244847Y97008D01*
X244919Y96966D01*
X244989Y96920D01*
X245058Y96871D01*
X245123Y96819D01*
X245187Y96764D01*
X245248Y96706D01*
X245306Y96645D01*
X245361Y96581D01*
X245413Y96516D01*
X245462Y96447D01*
X245508Y96377D01*
X245550Y96305D01*
X245589Y96230D01*
X245625Y96154D01*
X245657Y96077D01*
X245686Y95998D01*
X245711Y95918D01*
X245732Y95836D01*
X245749Y95754D01*
X245763Y95671D01*
X245772Y95588D01*
X245778Y95504D01*
X245780Y95420D01*
X245780Y80515D01*
X243599Y78334D02*
X241781Y78334D01*
X243599Y78334D02*
X243692Y78336D01*
X243784Y78342D01*
X243876Y78352D01*
X243968Y78365D01*
X244058Y78383D01*
X244149Y78404D01*
X244238Y78430D01*
X244326Y78459D01*
X244412Y78491D01*
X244497Y78528D01*
X244581Y78568D01*
X244663Y78611D01*
X244743Y78658D01*
X244820Y78708D01*
X244896Y78761D01*
X244969Y78818D01*
X245040Y78878D01*
X245108Y78940D01*
X245174Y79006D01*
X245236Y79074D01*
X245296Y79145D01*
X245353Y79218D01*
X245406Y79294D01*
X245456Y79371D01*
X245503Y79451D01*
X245546Y79533D01*
X245586Y79617D01*
X245623Y79702D01*
X245655Y79788D01*
X245684Y79876D01*
X245710Y79965D01*
X245731Y80056D01*
X245749Y80146D01*
X245762Y80238D01*
X245772Y80330D01*
X245778Y80422D01*
X245780Y80515D01*
X245417Y93602D02*
X241781Y93602D01*
X241781Y82333D02*
X245417Y82333D01*
X243962Y71791D02*
X241781Y71791D01*
X243962Y71791D02*
X244055Y71789D01*
X244147Y71783D01*
X244239Y71773D01*
X244331Y71760D01*
X244422Y71742D01*
X244512Y71721D01*
X244601Y71695D01*
X244689Y71666D01*
X244776Y71634D01*
X244861Y71597D01*
X244944Y71557D01*
X245026Y71514D01*
X245106Y71467D01*
X245184Y71417D01*
X245259Y71363D01*
X245333Y71307D01*
X245404Y71247D01*
X245472Y71184D01*
X245537Y71119D01*
X245600Y71051D01*
X245660Y70980D01*
X245716Y70906D01*
X245770Y70831D01*
X245820Y70753D01*
X245867Y70673D01*
X245910Y70591D01*
X245950Y70508D01*
X245987Y70423D01*
X246019Y70336D01*
X246048Y70248D01*
X246074Y70159D01*
X246095Y70069D01*
X246113Y69978D01*
X246126Y69886D01*
X246136Y69794D01*
X246142Y69702D01*
X246144Y69609D01*
X246144Y55069D01*
X243962Y52887D02*
X241781Y52887D01*
X243962Y52887D02*
X244055Y52889D01*
X244147Y52895D01*
X244239Y52905D01*
X244331Y52918D01*
X244422Y52936D01*
X244512Y52957D01*
X244601Y52983D01*
X244689Y53012D01*
X244776Y53044D01*
X244861Y53081D01*
X244944Y53121D01*
X245026Y53164D01*
X245106Y53211D01*
X245184Y53261D01*
X245259Y53315D01*
X245333Y53371D01*
X245404Y53431D01*
X245472Y53494D01*
X245537Y53559D01*
X245600Y53627D01*
X245660Y53698D01*
X245716Y53772D01*
X245770Y53847D01*
X245820Y53925D01*
X245867Y54005D01*
X245910Y54087D01*
X245950Y54170D01*
X245987Y54255D01*
X246019Y54342D01*
X246048Y54430D01*
X246074Y54519D01*
X246095Y54609D01*
X246113Y54700D01*
X246126Y54792D01*
X246136Y54884D01*
X246142Y54976D01*
X246144Y55069D01*
X245780Y57249D02*
X241781Y57249D01*
X241781Y68155D02*
X245780Y68155D01*
X243962Y103781D02*
X241781Y103781D01*
X243962Y103781D02*
X244046Y103783D01*
X244130Y103789D01*
X244213Y103798D01*
X244296Y103812D01*
X244378Y103829D01*
X244460Y103850D01*
X244540Y103875D01*
X244619Y103904D01*
X244696Y103936D01*
X244772Y103972D01*
X244847Y104011D01*
X244919Y104053D01*
X244989Y104099D01*
X245058Y104148D01*
X245123Y104200D01*
X245187Y104255D01*
X245248Y104313D01*
X245306Y104374D01*
X245361Y104438D01*
X245413Y104503D01*
X245462Y104572D01*
X245508Y104642D01*
X245550Y104714D01*
X245589Y104789D01*
X245625Y104865D01*
X245657Y104942D01*
X245686Y105021D01*
X245711Y105101D01*
X245732Y105183D01*
X245749Y105265D01*
X245763Y105348D01*
X245772Y105431D01*
X245778Y105515D01*
X245780Y105599D01*
X245780Y120867D01*
X243962Y122685D02*
X241781Y122685D01*
X243962Y122685D02*
X244046Y122683D01*
X244130Y122677D01*
X244213Y122668D01*
X244296Y122654D01*
X244378Y122637D01*
X244460Y122616D01*
X244540Y122591D01*
X244619Y122562D01*
X244696Y122530D01*
X244772Y122494D01*
X244847Y122455D01*
X244919Y122413D01*
X244989Y122367D01*
X245058Y122318D01*
X245123Y122266D01*
X245187Y122211D01*
X245248Y122153D01*
X245306Y122092D01*
X245361Y122028D01*
X245413Y121963D01*
X245462Y121894D01*
X245508Y121824D01*
X245550Y121752D01*
X245589Y121677D01*
X245625Y121601D01*
X245657Y121524D01*
X245686Y121445D01*
X245711Y121365D01*
X245732Y121283D01*
X245749Y121201D01*
X245763Y121118D01*
X245772Y121035D01*
X245778Y120951D01*
X245780Y120867D01*
D12*
X215971Y129228D02*
X215584Y129223D01*
X215198Y129209D01*
X214812Y129186D01*
X214427Y129153D01*
X214043Y129111D01*
X213660Y129060D01*
X213278Y129000D01*
X212898Y128930D01*
X212519Y128851D01*
X212143Y128763D01*
X211769Y128666D01*
X211397Y128560D01*
X211028Y128445D01*
X210662Y128321D01*
X210299Y128189D01*
X209939Y128047D01*
X209583Y127897D01*
X209230Y127738D01*
X208882Y127571D01*
X208537Y127396D01*
X208197Y127212D01*
X207862Y127020D01*
X207531Y126820D01*
X207205Y126612D01*
X206884Y126396D01*
X206569Y126173D01*
X206259Y125942D01*
X205955Y125704D01*
X205656Y125458D01*
X205364Y125205D01*
X205077Y124945D01*
X204798Y124679D01*
X204524Y124405D01*
X204258Y124126D01*
X203998Y123839D01*
X203745Y123547D01*
X203499Y123248D01*
X203261Y122944D01*
X203030Y122634D01*
X202807Y122319D01*
X202591Y121998D01*
X202383Y121672D01*
X202183Y121341D01*
X201991Y121006D01*
X201807Y120666D01*
X201632Y120321D01*
X201465Y119973D01*
X201306Y119620D01*
X201156Y119264D01*
X201014Y118904D01*
X200882Y118541D01*
X200758Y118175D01*
X200643Y117806D01*
X200537Y117434D01*
X200440Y117060D01*
X200352Y116684D01*
X200273Y116305D01*
X200203Y115925D01*
X200143Y115543D01*
X200092Y115160D01*
X200050Y114776D01*
X200017Y114391D01*
X199994Y114005D01*
X199980Y113619D01*
X199975Y113232D01*
D10*
X215971Y129228D02*
X216375Y129223D01*
X216779Y129208D01*
X217182Y129184D01*
X217585Y129150D01*
X217987Y129106D01*
X218387Y129053D01*
X218786Y128989D01*
X219184Y128916D01*
X219579Y128834D01*
X219973Y128742D01*
X220364Y128641D01*
X220753Y128530D01*
X221138Y128410D01*
X221521Y128280D01*
X221901Y128141D01*
X222277Y127993D01*
X222649Y127837D01*
X223018Y127671D01*
X223382Y127496D01*
X223742Y127313D01*
X224098Y127120D01*
X224448Y126920D01*
X224794Y126711D01*
X225135Y126493D01*
X225470Y126268D01*
X225800Y126034D01*
X226124Y125793D01*
X226442Y125544D01*
X226754Y125287D01*
X227060Y125023D01*
X227359Y124751D01*
X227652Y124472D01*
X227937Y124187D01*
X228216Y123894D01*
X228488Y123595D01*
X228752Y123289D01*
X229009Y122977D01*
X229258Y122659D01*
X229499Y122335D01*
X229733Y122005D01*
X229958Y121670D01*
X230176Y121329D01*
X230385Y120983D01*
X230585Y120633D01*
X230778Y120277D01*
X230961Y119917D01*
X231136Y119553D01*
X231302Y119184D01*
X231458Y118812D01*
X231606Y118436D01*
X231745Y118056D01*
X231875Y117673D01*
X231995Y117288D01*
X232106Y116899D01*
X232207Y116508D01*
X232299Y116114D01*
X232381Y115719D01*
X232454Y115321D01*
X232518Y114922D01*
X232571Y114522D01*
X232615Y114120D01*
X232649Y113717D01*
X232673Y113314D01*
X232688Y112910D01*
X232693Y112506D01*
X232693Y72154D01*
X232693Y62702D01*
X232688Y62298D01*
X232673Y61894D01*
X232649Y61491D01*
X232615Y61088D01*
X232571Y60686D01*
X232518Y60286D01*
X232454Y59887D01*
X232381Y59489D01*
X232299Y59094D01*
X232207Y58700D01*
X232106Y58309D01*
X231995Y57920D01*
X231875Y57535D01*
X231745Y57152D01*
X231606Y56772D01*
X231458Y56396D01*
X231302Y56024D01*
X231136Y55655D01*
X230961Y55291D01*
X230778Y54931D01*
X230585Y54575D01*
X230385Y54225D01*
X230176Y53879D01*
X229958Y53538D01*
X229733Y53203D01*
X229499Y52873D01*
X229258Y52549D01*
X229009Y52231D01*
X228752Y51919D01*
X228488Y51613D01*
X228216Y51314D01*
X227937Y51021D01*
X227652Y50736D01*
X227359Y50457D01*
X227060Y50185D01*
X226754Y49921D01*
X226442Y49664D01*
X226124Y49415D01*
X225800Y49174D01*
X225470Y48940D01*
X225135Y48715D01*
X224794Y48497D01*
X224448Y48288D01*
X224098Y48088D01*
X223742Y47895D01*
X223382Y47712D01*
X223018Y47537D01*
X222649Y47371D01*
X222277Y47215D01*
X221901Y47067D01*
X221521Y46928D01*
X221138Y46798D01*
X220753Y46678D01*
X220364Y46567D01*
X219973Y46466D01*
X219579Y46374D01*
X219184Y46292D01*
X218786Y46219D01*
X218387Y46155D01*
X217987Y46102D01*
X217585Y46058D01*
X217182Y46024D01*
X216779Y46000D01*
X216375Y45985D01*
X215971Y45980D01*
D12*
X215584Y45985D01*
X215198Y45999D01*
X214812Y46022D01*
X214427Y46055D01*
X214043Y46097D01*
X213660Y46148D01*
X213278Y46208D01*
X212898Y46278D01*
X212519Y46357D01*
X212143Y46445D01*
X211769Y46542D01*
X211397Y46648D01*
X211028Y46763D01*
X210662Y46887D01*
X210299Y47019D01*
X209939Y47161D01*
X209583Y47311D01*
X209230Y47470D01*
X208882Y47637D01*
X208537Y47812D01*
X208197Y47996D01*
X207862Y48188D01*
X207531Y48388D01*
X207205Y48596D01*
X206884Y48812D01*
X206569Y49035D01*
X206259Y49266D01*
X205955Y49504D01*
X205656Y49750D01*
X205364Y50003D01*
X205077Y50263D01*
X204798Y50529D01*
X204524Y50803D01*
X204258Y51082D01*
X203998Y51369D01*
X203745Y51661D01*
X203499Y51960D01*
X203261Y52264D01*
X203030Y52574D01*
X202807Y52889D01*
X202591Y53210D01*
X202383Y53536D01*
X202183Y53867D01*
X201991Y54202D01*
X201807Y54542D01*
X201632Y54887D01*
X201465Y55235D01*
X201306Y55588D01*
X201156Y55944D01*
X201014Y56304D01*
X200882Y56667D01*
X200758Y57033D01*
X200643Y57402D01*
X200537Y57774D01*
X200440Y58148D01*
X200352Y58524D01*
X200273Y58903D01*
X200203Y59283D01*
X200143Y59665D01*
X200092Y60048D01*
X200050Y60432D01*
X200017Y60817D01*
X199994Y61203D01*
X199980Y61589D01*
X199975Y61976D01*
D10*
X199975Y113232D01*
X98187Y110688D02*
X98187Y68882D01*
X116000Y89604D02*
X98187Y110688D01*
X116000Y89604D02*
X98187Y68519D01*
X99641Y31075D02*
X234511Y31075D01*
X99641Y31075D02*
X99489Y31077D01*
X99337Y31083D01*
X99185Y31093D01*
X99033Y31107D01*
X98882Y31125D01*
X98731Y31147D01*
X98581Y31172D01*
X98432Y31202D01*
X98283Y31236D01*
X98136Y31273D01*
X97989Y31315D01*
X97844Y31360D01*
X97700Y31409D01*
X97557Y31461D01*
X97415Y31518D01*
X97275Y31578D01*
X97137Y31642D01*
X97001Y31709D01*
X96866Y31780D01*
X96733Y31854D01*
X96602Y31932D01*
X96473Y32013D01*
X96347Y32098D01*
X96222Y32186D01*
X96100Y32277D01*
X95981Y32371D01*
X95864Y32468D01*
X95749Y32569D01*
X95638Y32672D01*
X95528Y32778D01*
X95422Y32888D01*
X95319Y32999D01*
X95218Y33114D01*
X95121Y33231D01*
X95027Y33350D01*
X94936Y33472D01*
X94848Y33597D01*
X94763Y33723D01*
X94682Y33852D01*
X94604Y33983D01*
X94530Y34116D01*
X94459Y34251D01*
X94392Y34387D01*
X94328Y34525D01*
X94268Y34665D01*
X94211Y34807D01*
X94159Y34950D01*
X94110Y35094D01*
X94065Y35239D01*
X94023Y35386D01*
X93986Y35533D01*
X93952Y35682D01*
X93922Y35831D01*
X93897Y35981D01*
X93875Y36132D01*
X93857Y36283D01*
X93843Y36435D01*
X93833Y36587D01*
X93827Y36739D01*
X93825Y36891D01*
X93825Y82696D01*
X93825Y152495D01*
X112728Y171398D01*
X234511Y171398D01*
X234511Y173215D01*
X234511Y177578D01*
X110184Y177578D01*
X88008Y155402D01*
X88008Y36528D01*
X88011Y36264D01*
X88021Y36001D01*
X88037Y35738D01*
X88059Y35475D01*
X88088Y35213D01*
X88122Y34952D01*
X88164Y34692D01*
X88211Y34433D01*
X88265Y34175D01*
X88325Y33918D01*
X88391Y33663D01*
X88463Y33409D01*
X88542Y33158D01*
X88626Y32908D01*
X88717Y32661D01*
X88813Y32415D01*
X88915Y32173D01*
X89024Y31932D01*
X89138Y31695D01*
X89257Y31460D01*
X89383Y31228D01*
X89513Y30999D01*
X89650Y30774D01*
X89791Y30551D01*
X89939Y30333D01*
X90091Y30118D01*
X90248Y29906D01*
X90411Y29699D01*
X90578Y29495D01*
X90751Y29296D01*
X90928Y29101D01*
X91110Y28910D01*
X91296Y28724D01*
X91487Y28542D01*
X91682Y28365D01*
X91881Y28192D01*
X92085Y28025D01*
X92292Y27862D01*
X92504Y27705D01*
X92719Y27553D01*
X92937Y27405D01*
X93160Y27264D01*
X93385Y27127D01*
X93614Y26997D01*
X93846Y26871D01*
X94081Y26752D01*
X94318Y26638D01*
X94559Y26529D01*
X94801Y26427D01*
X95047Y26331D01*
X95294Y26240D01*
X95544Y26156D01*
X95795Y26077D01*
X96049Y26005D01*
X96304Y25939D01*
X96561Y25879D01*
X96819Y25825D01*
X97078Y25778D01*
X97338Y25736D01*
X97599Y25702D01*
X97861Y25673D01*
X98124Y25651D01*
X98387Y25635D01*
X98650Y25625D01*
X98914Y25622D01*
X202157Y25622D01*
X234511Y25622D01*
X234511Y31075D01*
X157079Y63430D02*
X157079Y112142D01*
D12*
X157074Y112564D01*
X157059Y112985D01*
X157033Y113406D01*
X156998Y113826D01*
X156952Y114245D01*
X156896Y114663D01*
X156830Y115080D01*
X156754Y115495D01*
X156668Y115907D01*
X156572Y116318D01*
X156466Y116726D01*
X156350Y117132D01*
X156225Y117534D01*
X156090Y117934D01*
X155945Y118330D01*
X155791Y118722D01*
X155627Y119111D01*
X155454Y119495D01*
X155272Y119876D01*
X155080Y120251D01*
X154880Y120622D01*
X154670Y120988D01*
X154452Y121349D01*
X154225Y121705D01*
X153990Y122055D01*
X153746Y122399D01*
X153494Y122737D01*
X153234Y123069D01*
X152966Y123394D01*
X152691Y123713D01*
X152407Y124026D01*
X152116Y124331D01*
X151818Y124629D01*
X151513Y124920D01*
X151200Y125204D01*
X150881Y125479D01*
X150556Y125747D01*
X150224Y126007D01*
X149886Y126259D01*
X149542Y126503D01*
X149192Y126738D01*
X148836Y126965D01*
X148475Y127183D01*
X148109Y127393D01*
X147738Y127593D01*
X147363Y127785D01*
X146982Y127967D01*
X146598Y128140D01*
X146209Y128304D01*
X145817Y128458D01*
X145421Y128603D01*
X145021Y128738D01*
X144619Y128863D01*
X144213Y128979D01*
X143805Y129085D01*
X143394Y129181D01*
X142982Y129267D01*
X142567Y129343D01*
X142150Y129409D01*
X141732Y129465D01*
X141313Y129511D01*
X140893Y129546D01*
X140472Y129572D01*
X140051Y129587D01*
X139629Y129592D01*
D10*
X139243Y129587D01*
X138856Y129573D01*
X138470Y129550D01*
X138085Y129517D01*
X137701Y129475D01*
X137318Y129424D01*
X136936Y129364D01*
X136556Y129294D01*
X136178Y129215D01*
X135801Y129127D01*
X135427Y129030D01*
X135055Y128924D01*
X134686Y128809D01*
X134320Y128685D01*
X133957Y128553D01*
X133597Y128411D01*
X133241Y128261D01*
X132889Y128102D01*
X132540Y127935D01*
X132196Y127760D01*
X131856Y127576D01*
X131520Y127384D01*
X131189Y127184D01*
X130864Y126976D01*
X130543Y126761D01*
X130227Y126537D01*
X129917Y126306D01*
X129613Y126068D01*
X129315Y125822D01*
X129022Y125569D01*
X128736Y125310D01*
X128456Y125043D01*
X128183Y124770D01*
X127916Y124490D01*
X127657Y124204D01*
X127404Y123911D01*
X127158Y123613D01*
X126920Y123309D01*
X126689Y122999D01*
X126465Y122683D01*
X126250Y122362D01*
X126042Y122037D01*
X125842Y121706D01*
X125650Y121370D01*
X125466Y121030D01*
X125291Y120686D01*
X125124Y120337D01*
X124965Y119985D01*
X124815Y119629D01*
X124673Y119269D01*
X124541Y118906D01*
X124417Y118540D01*
X124302Y118171D01*
X124196Y117799D01*
X124099Y117425D01*
X124011Y117048D01*
X123932Y116670D01*
X123862Y116290D01*
X123802Y115908D01*
X123751Y115525D01*
X123709Y115141D01*
X123676Y114756D01*
X123653Y114370D01*
X123639Y113983D01*
X123634Y113597D01*
X123634Y61975D01*
X123639Y61589D01*
X123653Y61202D01*
X123676Y60816D01*
X123709Y60431D01*
X123751Y60047D01*
X123802Y59664D01*
X123862Y59282D01*
X123932Y58902D01*
X124011Y58524D01*
X124099Y58147D01*
X124196Y57773D01*
X124302Y57401D01*
X124417Y57032D01*
X124541Y56666D01*
X124673Y56303D01*
X124815Y55943D01*
X124965Y55587D01*
X125124Y55235D01*
X125291Y54886D01*
X125466Y54542D01*
X125650Y54202D01*
X125842Y53866D01*
X126042Y53535D01*
X126250Y53210D01*
X126465Y52889D01*
X126689Y52573D01*
X126920Y52263D01*
X127158Y51959D01*
X127404Y51661D01*
X127657Y51368D01*
X127916Y51082D01*
X128183Y50802D01*
X128456Y50529D01*
X128736Y50262D01*
X129022Y50003D01*
X129315Y49750D01*
X129613Y49504D01*
X129917Y49266D01*
X130227Y49035D01*
X130543Y48811D01*
X130864Y48596D01*
X131189Y48388D01*
X131520Y48188D01*
X131856Y47996D01*
X132196Y47812D01*
X132540Y47637D01*
X132889Y47470D01*
X133241Y47311D01*
X133597Y47161D01*
X133957Y47019D01*
X134320Y46887D01*
X134686Y46763D01*
X135055Y46648D01*
X135427Y46542D01*
X135801Y46445D01*
X136178Y46357D01*
X136556Y46278D01*
X136936Y46208D01*
X137318Y46148D01*
X137701Y46097D01*
X138085Y46055D01*
X138470Y46022D01*
X138856Y45999D01*
X139243Y45985D01*
X139629Y45980D01*
X140051Y45985D01*
X140472Y46000D01*
X140893Y46026D01*
X141313Y46061D01*
X141732Y46107D01*
X142150Y46163D01*
X142567Y46229D01*
X142982Y46305D01*
X143394Y46391D01*
X143805Y46487D01*
X144213Y46593D01*
X144619Y46709D01*
X145021Y46834D01*
X145421Y46969D01*
X145817Y47114D01*
X146209Y47268D01*
X146598Y47432D01*
X146982Y47605D01*
X147363Y47787D01*
X147738Y47979D01*
X148109Y48179D01*
X148475Y48389D01*
X148836Y48607D01*
X149192Y48834D01*
X149542Y49069D01*
X149886Y49313D01*
X150224Y49565D01*
X150556Y49825D01*
X150881Y50093D01*
X151200Y50368D01*
X151513Y50652D01*
X151818Y50943D01*
X152116Y51241D01*
X152407Y51546D01*
X152691Y51859D01*
X152966Y52178D01*
X153234Y52503D01*
X153494Y52835D01*
X153746Y53173D01*
X153990Y53517D01*
X154225Y53867D01*
X154452Y54223D01*
X154670Y54584D01*
X154880Y54950D01*
X155080Y55321D01*
X155272Y55696D01*
X155454Y56077D01*
X155627Y56461D01*
X155791Y56850D01*
X155945Y57242D01*
X156090Y57638D01*
X156225Y58038D01*
X156350Y58440D01*
X156466Y58846D01*
X156572Y59254D01*
X156668Y59665D01*
X156754Y60077D01*
X156830Y60492D01*
X156896Y60909D01*
X156952Y61327D01*
X156998Y61746D01*
X157033Y62166D01*
X157059Y62587D01*
X157074Y63008D01*
X157079Y63430D01*
X41476Y178668D02*
X11303Y148495D01*
X41476Y178668D02*
X59653Y178668D01*
X59653Y187393D01*
X44384Y177941D02*
X14939Y148132D01*
X44384Y177941D02*
X44748Y177941D01*
X44748Y172488D01*
X60016Y172488D01*
X60016Y165945D01*
X85827Y165945D01*
X62561Y166308D02*
X62561Y173942D01*
X49837Y173942D01*
X48020Y175760D01*
X48020Y178305D01*
X62561Y177214D02*
X62561Y187030D01*
X62561Y177214D02*
X85827Y177214D01*
X85827Y25622D01*
X64742Y25622D01*
X62561Y23441D01*
X62561Y15807D01*
X66560Y36892D02*
X85463Y36892D01*
X66560Y36892D02*
X60016Y30348D01*
X45112Y30348D01*
X44748Y29984D01*
X44748Y24895D01*
X66923Y27803D02*
X75648Y36528D01*
X66923Y27803D02*
X48383Y27803D01*
X48383Y24895D01*
X60016Y30348D02*
X69105Y30348D01*
X14939Y29257D02*
X14939Y50706D01*
X14939Y29257D02*
X19664Y24532D01*
X59653Y24532D01*
X59653Y15807D01*
X14575Y29258D02*
X11303Y29258D01*
X82192Y177578D02*
X82192Y187030D01*
X66196Y187030D02*
X66196Y177578D01*
X48747Y178305D02*
X48747Y175397D01*
X203974Y116141D02*
X231239Y118322D01*
X203974Y116141D02*
X203974Y110325D01*
X232330Y108144D01*
X231966Y93239D02*
X204338Y91058D01*
X204338Y84514D01*
X232330Y82696D01*
X232330Y67792D02*
X203974Y65611D01*
X203974Y59431D01*
X231239Y57249D01*
X151626Y116505D02*
X124725Y118322D01*
X151626Y116505D02*
X151626Y110325D01*
X123998Y108144D01*
X123998Y92875D02*
X151626Y91058D01*
X151626Y84878D01*
X123998Y82696D01*
X123998Y67792D02*
X151626Y65611D01*
X151626Y59431D01*
X124725Y57249D01*
X203611Y122685D02*
X228694Y122685D01*
X232330Y103781D02*
X200702Y103781D01*
X200339Y97601D02*
X231966Y97601D01*
X232330Y78334D02*
X200702Y78334D01*
X200339Y72154D02*
X232693Y72154D01*
X229058Y53251D02*
X202884Y53251D01*
X153080Y53251D02*
X126542Y53251D01*
X123998Y72154D02*
X156715Y72154D01*
X156715Y78334D02*
X123998Y78334D01*
X124361Y97238D02*
X156715Y97238D01*
X156715Y103781D02*
X124361Y103781D01*
X126906Y122685D02*
X152716Y122685D01*
X229785Y172125D02*
X234147Y176851D01*
X229785Y172125D02*
X224695Y177214D01*
X223241Y177214D02*
X218515Y172125D01*
X213426Y177214D01*
X211972Y177214D02*
X206882Y172125D01*
X206882Y172488D02*
X202157Y177214D01*
X230512Y177214D02*
X234511Y173215D01*
X228694Y177214D02*
X223968Y172125D01*
X218879Y177214D01*
X217425Y177214D02*
X212699Y172125D01*
X207609Y176851D01*
X206519Y176851D02*
X201429Y172125D01*
X196340Y177214D01*
X194886Y177214D02*
X190160Y172125D01*
X185071Y176851D01*
X195977Y172125D02*
X200702Y177214D01*
X195977Y172125D02*
X191251Y176851D01*
X189069Y177214D02*
X184344Y172125D01*
X179618Y177214D01*
X183616Y177214D02*
X178527Y172125D01*
X173801Y176851D01*
X178164Y176851D02*
X173074Y172125D01*
X168348Y176851D01*
X172347Y177214D02*
X167258Y172125D01*
X162168Y177214D01*
X166894Y177214D02*
X161805Y172125D01*
X156715Y177214D01*
X160714Y177214D02*
X155988Y172125D01*
X150899Y177214D01*
X155625Y177214D02*
X150535Y172125D01*
X145446Y177214D01*
X149808Y177214D02*
X144719Y172125D01*
X139993Y176851D01*
X143992Y176851D02*
X139266Y172125D01*
X134540Y176851D01*
X138539Y176851D02*
X133449Y172125D01*
X128723Y176851D01*
X133449Y176851D02*
X127996Y171761D01*
X122543Y177214D01*
X127269Y177214D02*
X122180Y172125D01*
X117090Y177214D01*
X121453Y177214D02*
X116363Y172125D01*
X111638Y177214D01*
X116000Y177214D02*
X88372Y149586D01*
X112001Y171034D02*
X108002Y175033D01*
X105458Y172125D02*
X109093Y168490D01*
X106185Y165218D02*
X102550Y168853D01*
X102549Y168853D01*
X100005Y166308D02*
X103640Y162673D01*
X100732Y159765D02*
X97097Y163400D01*
X97096Y163400D01*
X93825Y160855D02*
X97823Y156857D01*
X94915Y154312D02*
X91280Y157947D01*
X88372Y154675D02*
X93461Y149586D01*
D12*
X88372Y149222D02*
X93461Y144133D01*
D10*
X93461Y149222D02*
X88372Y144133D01*
X88372Y143406D02*
X93461Y138317D01*
X88372Y138680D02*
X93461Y143769D01*
D12*
X88372Y137953D02*
X93461Y132864D01*
D10*
X93461Y137953D02*
X88372Y132864D01*
X88372Y132500D02*
X93461Y127411D01*
X93461Y132137D02*
X88372Y127048D01*
X88372Y127047D01*
D12*
X88735Y126684D02*
X93461Y121958D01*
D10*
X93461Y126684D02*
X88372Y121595D01*
X88372Y121594D01*
D12*
X88372Y121231D02*
X93461Y116142D01*
D10*
X93461Y116141D01*
X88372Y116142D02*
X93461Y121231D01*
X88372Y116142D02*
X88372Y116141D01*
X88372Y115778D02*
X93461Y110689D01*
X93461Y110688D01*
X93461Y115051D02*
X88372Y109962D01*
X88372Y109961D01*
X88735Y109961D02*
X93461Y105235D01*
X93461Y109598D02*
X88372Y104509D01*
X88372Y104508D01*
D12*
X88735Y104145D02*
X93461Y99419D01*
D10*
X93461Y104145D02*
X88372Y99056D01*
X88372Y99055D01*
D12*
X88735Y98328D02*
X93461Y93602D01*
D10*
X93461Y98328D02*
X88372Y93239D01*
X88735Y92875D02*
X93461Y88149D01*
X93461Y92512D02*
X88372Y87423D01*
X88372Y87422D01*
X88735Y87422D02*
X93461Y82696D01*
X93825Y82696D01*
X93461Y87059D02*
X88372Y81970D01*
X88372Y81969D01*
X88372Y81606D02*
X93461Y76517D01*
X93461Y76516D01*
X93461Y81242D02*
X88372Y76153D01*
X93461Y71064D01*
X93461Y71063D01*
X93461Y75789D02*
X88372Y70700D01*
X88372Y70336D02*
X93461Y65247D01*
X93461Y69973D02*
X88372Y64884D01*
X88372Y64883D01*
X88372Y64520D02*
X93461Y59431D01*
X93461Y64156D02*
X88372Y59067D01*
X93461Y58703D02*
X88372Y53614D01*
X88735Y58703D02*
X93460Y53978D01*
X93461Y53978D01*
D12*
X93461Y53251D02*
X88372Y48162D01*
D10*
X88372Y48161D01*
X93461Y48162D02*
X88372Y53251D01*
X93461Y48162D02*
X93461Y48161D01*
X93461Y47434D02*
X88372Y42345D01*
X93461Y42709D02*
X88372Y47798D01*
X93461Y42709D02*
X93461Y42708D01*
X88735Y41618D02*
X93461Y36892D01*
X93461Y41618D02*
X88372Y36529D01*
X88372Y36528D01*
X98914Y25986D01*
X95279Y26713D02*
X99278Y30712D01*
X95642Y32529D02*
X91643Y28530D01*
X89462Y32166D02*
X93461Y36165D01*
X99641Y30712D02*
X104367Y25986D01*
X100368Y25986D02*
X105094Y30712D01*
X105458Y30712D02*
X110183Y25987D01*
X110183Y25986D01*
X106185Y25987D02*
X110910Y30712D01*
X106185Y25987D02*
X106185Y25986D01*
X110910Y30712D02*
X115636Y25986D01*
X111638Y25986D02*
X116363Y30711D01*
X116363Y30712D01*
X121089Y25986D01*
X117454Y25986D02*
X122180Y30712D01*
X126906Y25986D01*
X122907Y25986D02*
X127633Y30712D01*
X132359Y25986D01*
X128723Y25986D02*
X133449Y30712D01*
X138175Y25986D01*
X134176Y25986D02*
X138902Y30712D01*
X143628Y25986D01*
X139993Y25986D02*
X144719Y30712D01*
X149445Y25986D01*
X145446Y25986D02*
X150172Y30712D01*
X154898Y25986D01*
X150899Y25986D02*
X155625Y30712D01*
X160351Y25986D01*
X157079Y25986D02*
X161805Y30712D01*
X166531Y25986D01*
X162532Y25986D02*
X167258Y30712D01*
X171984Y25986D01*
X168348Y25986D02*
X173074Y30712D01*
X177800Y25986D01*
X173801Y25986D02*
X178527Y30712D01*
X183253Y25986D01*
X179618Y25986D02*
X184344Y30712D01*
X189069Y25987D01*
X189069Y25986D01*
X185071Y25986D02*
X189796Y30711D01*
X189796Y30712D01*
X194522Y25986D01*
X190887Y25986D02*
X195613Y30712D01*
X200339Y25986D01*
X196340Y25986D02*
X201066Y30712D01*
X205792Y25986D01*
X202157Y25622D02*
X207246Y30711D01*
X207246Y30712D01*
X211972Y25986D01*
X207973Y25986D02*
X212699Y30712D01*
X217425Y25986D01*
X213426Y25986D02*
X218152Y30712D01*
X222878Y25986D01*
X219242Y25986D02*
X223968Y30712D01*
X228694Y25986D01*
X224695Y25986D02*
X229421Y30712D01*
X234147Y25986D01*
D12*
X230512Y25986D02*
X234147Y29621D01*
D10*
X113819Y35438D02*
X106185Y35438D01*
X106106Y35440D01*
X106027Y35446D01*
X105949Y35455D01*
X105871Y35468D01*
X105793Y35486D01*
X105717Y35506D01*
X105642Y35531D01*
X105568Y35559D01*
X105496Y35590D01*
X105425Y35625D01*
X105356Y35664D01*
X105288Y35706D01*
X105223Y35750D01*
X105161Y35798D01*
X105100Y35849D01*
X105042Y35903D01*
X104987Y35960D01*
X104935Y36019D01*
X104885Y36081D01*
X104839Y36145D01*
X104795Y36211D01*
X104755Y36279D01*
X104718Y36349D01*
X104685Y36421D01*
X104655Y36494D01*
X104629Y36568D01*
X104606Y36644D01*
X104588Y36721D01*
X104572Y36799D01*
X104561Y36877D01*
X104553Y36955D01*
X104549Y37034D01*
X104549Y37114D01*
X104553Y37193D01*
X104561Y37271D01*
X104572Y37349D01*
X104588Y37427D01*
X104606Y37504D01*
X104629Y37580D01*
X104655Y37654D01*
X104685Y37727D01*
X104718Y37799D01*
X104755Y37869D01*
X104795Y37937D01*
X104839Y38003D01*
X104885Y38067D01*
X104935Y38129D01*
X104987Y38188D01*
X105042Y38245D01*
X105100Y38299D01*
X105161Y38350D01*
X105223Y38398D01*
X105288Y38442D01*
X105356Y38484D01*
X105425Y38523D01*
X105496Y38558D01*
X105568Y38589D01*
X105642Y38617D01*
X105717Y38642D01*
X105793Y38662D01*
X105871Y38680D01*
X105949Y38693D01*
X106027Y38702D01*
X106106Y38708D01*
X106185Y38710D01*
X106185Y38709D02*
X113819Y38709D01*
X113819Y38710D02*
X113898Y38708D01*
X113977Y38702D01*
X114055Y38693D01*
X114133Y38680D01*
X114211Y38662D01*
X114287Y38642D01*
X114362Y38617D01*
X114436Y38589D01*
X114508Y38558D01*
X114579Y38523D01*
X114648Y38484D01*
X114716Y38442D01*
X114781Y38398D01*
X114843Y38350D01*
X114904Y38299D01*
X114962Y38245D01*
X115017Y38188D01*
X115069Y38129D01*
X115119Y38067D01*
X115165Y38003D01*
X115209Y37937D01*
X115249Y37869D01*
X115286Y37799D01*
X115319Y37727D01*
X115349Y37654D01*
X115375Y37580D01*
X115398Y37504D01*
X115416Y37427D01*
X115432Y37349D01*
X115443Y37271D01*
X115451Y37193D01*
X115455Y37114D01*
X115455Y37034D01*
X115451Y36955D01*
X115443Y36877D01*
X115432Y36799D01*
X115416Y36721D01*
X115398Y36644D01*
X115375Y36568D01*
X115349Y36494D01*
X115319Y36421D01*
X115286Y36349D01*
X115249Y36279D01*
X115209Y36211D01*
X115165Y36145D01*
X115119Y36081D01*
X115069Y36019D01*
X115017Y35960D01*
X114962Y35903D01*
X114904Y35849D01*
X114843Y35798D01*
X114781Y35750D01*
X114716Y35706D01*
X114648Y35664D01*
X114579Y35625D01*
X114508Y35590D01*
X114436Y35559D01*
X114362Y35531D01*
X114287Y35506D01*
X114211Y35486D01*
X114133Y35468D01*
X114055Y35455D01*
X113977Y35446D01*
X113898Y35440D01*
X113819Y35438D01*
X115273Y45980D02*
X104730Y45980D01*
X115273Y45980D02*
X115273Y47798D01*
X115274Y47799D02*
X115272Y47882D01*
X115266Y47966D01*
X115256Y48050D01*
X115243Y48133D01*
X115226Y48215D01*
X115204Y48296D01*
X115180Y48376D01*
X115151Y48455D01*
X115119Y48533D01*
X115083Y48609D01*
X115044Y48683D01*
X115001Y48755D01*
X114956Y48826D01*
X114906Y48894D01*
X114854Y48960D01*
X114799Y49023D01*
X114741Y49084D01*
X114680Y49142D01*
X114617Y49197D01*
X114551Y49249D01*
X114483Y49298D01*
X114413Y49344D01*
X114340Y49386D01*
X114266Y49426D01*
X114190Y49461D01*
X114112Y49493D01*
X114033Y49522D01*
X113953Y49547D01*
X113872Y49568D01*
X113790Y49585D01*
X113707Y49599D01*
X113623Y49608D01*
X113539Y49614D01*
X113455Y49616D01*
X113455Y49615D02*
X111274Y49615D01*
X111198Y49613D01*
X111122Y49607D01*
X111047Y49597D01*
X110972Y49583D01*
X110898Y49565D01*
X110825Y49544D01*
X110753Y49518D01*
X110683Y49489D01*
X110614Y49457D01*
X110547Y49420D01*
X110482Y49380D01*
X110419Y49337D01*
X110359Y49291D01*
X110301Y49242D01*
X110246Y49189D01*
X110193Y49134D01*
X110144Y49076D01*
X110098Y49016D01*
X110055Y48953D01*
X110015Y48888D01*
X109978Y48821D01*
X109946Y48752D01*
X109917Y48682D01*
X109891Y48610D01*
X109870Y48537D01*
X109852Y48463D01*
X109838Y48388D01*
X109828Y48313D01*
X109822Y48237D01*
X109820Y48161D01*
X109820Y46343D01*
X115273Y56522D02*
X115273Y60158D01*
X115273Y56522D02*
X104730Y56522D01*
X104730Y60158D01*
X109820Y59431D02*
X109820Y56886D01*
X104730Y67065D02*
X115273Y67065D01*
X104730Y70700D01*
X115273Y70700D01*
X113819Y108144D02*
X106185Y108144D01*
X106106Y108146D01*
X106027Y108152D01*
X105949Y108161D01*
X105871Y108174D01*
X105793Y108192D01*
X105717Y108212D01*
X105642Y108237D01*
X105568Y108265D01*
X105496Y108296D01*
X105425Y108331D01*
X105356Y108370D01*
X105288Y108412D01*
X105223Y108456D01*
X105161Y108504D01*
X105100Y108555D01*
X105042Y108609D01*
X104987Y108666D01*
X104935Y108725D01*
X104885Y108787D01*
X104839Y108851D01*
X104795Y108917D01*
X104755Y108985D01*
X104718Y109055D01*
X104685Y109127D01*
X104655Y109200D01*
X104629Y109274D01*
X104606Y109350D01*
X104588Y109427D01*
X104572Y109505D01*
X104561Y109583D01*
X104553Y109661D01*
X104549Y109740D01*
X104549Y109820D01*
X104553Y109899D01*
X104561Y109977D01*
X104572Y110055D01*
X104588Y110133D01*
X104606Y110210D01*
X104629Y110286D01*
X104655Y110360D01*
X104685Y110433D01*
X104718Y110505D01*
X104755Y110575D01*
X104795Y110643D01*
X104839Y110709D01*
X104885Y110773D01*
X104935Y110835D01*
X104987Y110894D01*
X105042Y110951D01*
X105100Y111005D01*
X105161Y111056D01*
X105223Y111104D01*
X105288Y111148D01*
X105356Y111190D01*
X105425Y111229D01*
X105496Y111264D01*
X105568Y111295D01*
X105642Y111323D01*
X105717Y111348D01*
X105793Y111368D01*
X105871Y111386D01*
X105949Y111399D01*
X106027Y111408D01*
X106106Y111414D01*
X106185Y111416D01*
X106185Y111415D02*
X113819Y111415D01*
X113819Y111416D02*
X113898Y111414D01*
X113977Y111408D01*
X114055Y111399D01*
X114133Y111386D01*
X114211Y111368D01*
X114287Y111348D01*
X114362Y111323D01*
X114436Y111295D01*
X114508Y111264D01*
X114579Y111229D01*
X114648Y111190D01*
X114716Y111148D01*
X114781Y111104D01*
X114843Y111056D01*
X114904Y111005D01*
X114962Y110951D01*
X115017Y110894D01*
X115069Y110835D01*
X115119Y110773D01*
X115165Y110709D01*
X115209Y110643D01*
X115249Y110575D01*
X115286Y110505D01*
X115319Y110433D01*
X115349Y110360D01*
X115375Y110286D01*
X115398Y110210D01*
X115416Y110133D01*
X115432Y110055D01*
X115443Y109977D01*
X115451Y109899D01*
X115455Y109820D01*
X115455Y109740D01*
X115451Y109661D01*
X115443Y109583D01*
X115432Y109505D01*
X115416Y109427D01*
X115398Y109350D01*
X115375Y109274D01*
X115349Y109200D01*
X115319Y109127D01*
X115286Y109055D01*
X115249Y108985D01*
X115209Y108917D01*
X115165Y108851D01*
X115119Y108787D01*
X115069Y108725D01*
X115017Y108666D01*
X114962Y108609D01*
X114904Y108555D01*
X114843Y108504D01*
X114781Y108456D01*
X114716Y108412D01*
X114648Y108370D01*
X114579Y108331D01*
X114508Y108296D01*
X114436Y108265D01*
X114362Y108237D01*
X114287Y108212D01*
X114211Y108192D01*
X114133Y108174D01*
X114055Y108161D01*
X113977Y108152D01*
X113898Y108146D01*
X113819Y108144D01*
X115273Y118686D02*
X104730Y118686D01*
X115273Y118686D02*
X115273Y120504D01*
X115274Y120505D02*
X115272Y120588D01*
X115266Y120672D01*
X115256Y120756D01*
X115243Y120839D01*
X115226Y120921D01*
X115204Y121002D01*
X115180Y121082D01*
X115151Y121161D01*
X115119Y121239D01*
X115083Y121315D01*
X115044Y121389D01*
X115001Y121461D01*
X114956Y121532D01*
X114906Y121600D01*
X114854Y121666D01*
X114799Y121729D01*
X114741Y121790D01*
X114680Y121848D01*
X114617Y121903D01*
X114551Y121955D01*
X114483Y122004D01*
X114413Y122050D01*
X114340Y122092D01*
X114266Y122132D01*
X114190Y122167D01*
X114112Y122199D01*
X114033Y122228D01*
X113953Y122253D01*
X113872Y122274D01*
X113790Y122291D01*
X113707Y122305D01*
X113623Y122314D01*
X113539Y122320D01*
X113455Y122322D01*
X113455Y122321D02*
X111274Y122321D01*
X111198Y122319D01*
X111122Y122313D01*
X111047Y122303D01*
X110972Y122289D01*
X110898Y122271D01*
X110825Y122250D01*
X110753Y122224D01*
X110683Y122195D01*
X110614Y122163D01*
X110547Y122126D01*
X110482Y122086D01*
X110419Y122043D01*
X110359Y121997D01*
X110301Y121948D01*
X110246Y121895D01*
X110193Y121840D01*
X110144Y121782D01*
X110098Y121722D01*
X110055Y121659D01*
X110015Y121594D01*
X109978Y121527D01*
X109946Y121458D01*
X109917Y121388D01*
X109891Y121316D01*
X109870Y121243D01*
X109852Y121169D01*
X109838Y121094D01*
X109828Y121019D01*
X109822Y120943D01*
X109820Y120867D01*
X109820Y119049D01*
X115273Y129228D02*
X115273Y132864D01*
X115273Y129228D02*
X104730Y129228D01*
X104730Y132864D01*
X109820Y132137D02*
X109820Y129592D01*
X104730Y139771D02*
X115273Y139771D01*
X104730Y143406D01*
X115273Y143406D01*
X98550Y106689D02*
X110183Y95056D01*
X115272Y89967D01*
X115273Y89967D01*
X113091Y86695D02*
X98550Y101236D01*
X113091Y86695D02*
X113092Y86695D01*
D12*
X110547Y83423D02*
X98550Y95420D01*
D10*
X98550Y89604D02*
X107639Y80515D01*
D12*
X105094Y77607D02*
X98550Y84151D01*
D10*
X98550Y78698D02*
X102549Y74699D01*
X100004Y71427D02*
X98550Y72881D01*
X100004Y71427D02*
X100005Y71427D01*
X98550Y71791D02*
X112000Y85241D01*
X112001Y85241D01*
X113091Y92148D02*
X98550Y77607D01*
X113091Y92148D02*
X113092Y92148D01*
X110183Y95056D02*
X98550Y83423D01*
X98550Y89240D02*
X108002Y98692D01*
X105457Y101600D02*
X98550Y94693D01*
X105457Y101600D02*
X105458Y101600D01*
X102913Y104872D02*
X98550Y100509D01*
X98550Y105962D02*
X100368Y107780D01*
X231966Y153948D02*
X229421Y164854D01*
X227240Y153948D01*
X228694Y158311D02*
X230512Y158311D01*
X220333Y153948D02*
X220333Y164854D01*
X217425Y156857D01*
X214517Y164854D01*
X214517Y153948D01*
X207973Y153948D02*
X207973Y164854D01*
X206155Y164854D01*
X206070Y164852D01*
X205985Y164846D01*
X205900Y164836D01*
X205816Y164823D01*
X205733Y164805D01*
X205650Y164784D01*
X205569Y164759D01*
X205489Y164730D01*
X205410Y164697D01*
X205333Y164661D01*
X205258Y164621D01*
X205184Y164578D01*
X205113Y164532D01*
X205044Y164482D01*
X204977Y164429D01*
X204913Y164374D01*
X204851Y164315D01*
X204792Y164253D01*
X204736Y164189D01*
X204683Y164123D01*
X204633Y164054D01*
X204586Y163982D01*
X204543Y163909D01*
X204503Y163834D01*
X204467Y163757D01*
X204434Y163678D01*
X204405Y163598D01*
X204380Y163517D01*
X204358Y163434D01*
X204340Y163351D01*
X204326Y163267D01*
X204316Y163182D01*
X204310Y163097D01*
X204308Y163012D01*
X204310Y162927D01*
X204315Y162842D01*
X204325Y162758D01*
X204338Y162673D01*
X204338Y161219D01*
X204340Y161134D01*
X204346Y161049D01*
X204356Y160964D01*
X204369Y160880D01*
X204387Y160797D01*
X204408Y160714D01*
X204433Y160633D01*
X204462Y160553D01*
X204495Y160474D01*
X204531Y160397D01*
X204571Y160322D01*
X204614Y160248D01*
X204660Y160177D01*
X204710Y160107D01*
X204763Y160041D01*
X204818Y159976D01*
X204877Y159914D01*
X204939Y159856D01*
X205003Y159799D01*
X205069Y159746D01*
X205138Y159697D01*
X205210Y159650D01*
X205283Y159607D01*
X205358Y159567D01*
X205435Y159530D01*
X205514Y159498D01*
X205594Y159468D01*
X205675Y159443D01*
X205758Y159421D01*
X205841Y159403D01*
X205925Y159390D01*
X206010Y159379D01*
X206095Y159373D01*
X206180Y159371D01*
X206265Y159373D01*
X206350Y159378D01*
X206435Y159388D01*
X206519Y159401D01*
X207609Y159401D01*
X197794Y159401D02*
X197794Y153948D01*
X197794Y159401D02*
X197794Y164854D01*
X194522Y159401D02*
X194522Y153948D01*
X194522Y159401D02*
X194522Y164854D01*
X194522Y159401D02*
X197794Y159401D01*
X187979Y153948D02*
X184344Y153948D01*
X187979Y153948D02*
X187979Y164854D01*
X184344Y164854D01*
X178164Y164854D02*
X178164Y153948D01*
X174528Y153948D02*
X178164Y164854D01*
X174528Y164854D02*
X174528Y153948D01*
X167985Y155766D02*
X167985Y163400D01*
D12*
X167983Y163479D01*
X167977Y163558D01*
X167968Y163636D01*
X167955Y163714D01*
X167937Y163792D01*
X167917Y163868D01*
X167892Y163943D01*
X167864Y164017D01*
X167833Y164089D01*
X167798Y164160D01*
X167759Y164229D01*
X167717Y164297D01*
X167673Y164362D01*
X167625Y164424D01*
X167574Y164485D01*
X167520Y164543D01*
X167463Y164598D01*
X167404Y164650D01*
X167342Y164700D01*
X167278Y164746D01*
X167212Y164790D01*
X167144Y164830D01*
X167074Y164867D01*
X167002Y164900D01*
X166929Y164930D01*
X166855Y164956D01*
X166779Y164979D01*
X166702Y164997D01*
X166624Y165013D01*
X166546Y165024D01*
X166468Y165032D01*
X166389Y165036D01*
X166309Y165036D01*
X166230Y165032D01*
X166152Y165024D01*
X166074Y165013D01*
X165996Y164997D01*
X165919Y164979D01*
X165843Y164956D01*
X165769Y164930D01*
X165696Y164900D01*
X165624Y164867D01*
X165554Y164830D01*
X165486Y164790D01*
X165420Y164746D01*
X165356Y164700D01*
X165294Y164650D01*
X165235Y164598D01*
X165178Y164543D01*
X165124Y164485D01*
X165073Y164424D01*
X165025Y164362D01*
X164981Y164297D01*
X164939Y164229D01*
X164900Y164160D01*
X164865Y164089D01*
X164834Y164017D01*
X164806Y163943D01*
X164781Y163868D01*
X164761Y163792D01*
X164743Y163714D01*
X164730Y163636D01*
X164721Y163558D01*
X164715Y163479D01*
X164713Y163400D01*
D10*
X164713Y155766D01*
X164715Y155687D01*
X164721Y155608D01*
X164730Y155530D01*
X164743Y155452D01*
X164761Y155374D01*
X164781Y155298D01*
X164806Y155223D01*
X164834Y155149D01*
X164865Y155077D01*
X164900Y155006D01*
X164939Y154937D01*
X164981Y154869D01*
X165025Y154804D01*
X165073Y154742D01*
X165124Y154681D01*
X165178Y154623D01*
X165235Y154568D01*
X165294Y154516D01*
X165356Y154466D01*
X165420Y154420D01*
X165486Y154376D01*
X165554Y154336D01*
X165624Y154299D01*
X165696Y154266D01*
X165769Y154236D01*
X165843Y154210D01*
X165919Y154187D01*
X165996Y154169D01*
X166074Y154153D01*
X166152Y154142D01*
X166230Y154134D01*
X166309Y154130D01*
X166389Y154130D01*
X166468Y154134D01*
X166546Y154142D01*
X166624Y154153D01*
X166702Y154169D01*
X166779Y154187D01*
X166855Y154210D01*
X166929Y154236D01*
X167002Y154266D01*
X167074Y154299D01*
X167144Y154336D01*
X167212Y154376D01*
X167278Y154420D01*
X167342Y154466D01*
X167404Y154516D01*
X167463Y154568D01*
X167520Y154623D01*
X167574Y154681D01*
X167625Y154742D01*
X167673Y154804D01*
X167717Y154869D01*
X167759Y154937D01*
X167798Y155006D01*
X167833Y155077D01*
X167864Y155149D01*
X167892Y155223D01*
X167917Y155298D01*
X167937Y155374D01*
X167955Y155452D01*
X167968Y155530D01*
X167977Y155608D01*
X167983Y155687D01*
X167985Y155766D01*
X158169Y154312D02*
X158169Y164854D01*
X158169Y154312D02*
X154534Y154312D01*
X231966Y138680D02*
X231966Y137589D01*
X231964Y137510D01*
X231958Y137431D01*
X231949Y137353D01*
X231936Y137275D01*
X231918Y137197D01*
X231898Y137121D01*
X231873Y137046D01*
X231845Y136972D01*
X231814Y136900D01*
X231779Y136829D01*
X231740Y136760D01*
X231698Y136692D01*
X231654Y136627D01*
X231606Y136565D01*
X231555Y136504D01*
X231501Y136446D01*
X231444Y136391D01*
X231385Y136339D01*
X231323Y136289D01*
X231259Y136243D01*
X231193Y136199D01*
X231125Y136159D01*
X231055Y136122D01*
X230983Y136089D01*
X230910Y136059D01*
X230836Y136033D01*
X230760Y136010D01*
X230683Y135992D01*
X230605Y135976D01*
X230527Y135965D01*
X230449Y135957D01*
X230370Y135953D01*
X230290Y135953D01*
X230211Y135957D01*
X230133Y135965D01*
X230055Y135976D01*
X229977Y135992D01*
X229900Y136010D01*
X229824Y136033D01*
X229750Y136059D01*
X229677Y136089D01*
X229605Y136122D01*
X229535Y136159D01*
X229467Y136199D01*
X229401Y136243D01*
X229337Y136289D01*
X229275Y136339D01*
X229216Y136391D01*
X229159Y136446D01*
X229105Y136504D01*
X229054Y136565D01*
X229006Y136627D01*
X228962Y136692D01*
X228920Y136760D01*
X228881Y136829D01*
X228846Y136900D01*
X228815Y136972D01*
X228787Y137046D01*
X228762Y137121D01*
X228742Y137197D01*
X228724Y137275D01*
X228711Y137353D01*
X228702Y137431D01*
X228696Y137510D01*
X228694Y137589D01*
X228694Y139771D01*
X228696Y139855D01*
X228702Y139938D01*
X228711Y140021D01*
X228724Y140104D01*
X228741Y140186D01*
X228761Y140267D01*
X228786Y140348D01*
X228813Y140427D01*
X228845Y140504D01*
X228879Y140581D01*
X228917Y140655D01*
X228959Y140728D01*
X229003Y140799D01*
X229051Y140868D01*
X229102Y140934D01*
X229156Y140999D01*
X229213Y141060D01*
X229272Y141119D01*
X229334Y141176D01*
X229398Y141229D01*
X229465Y141280D01*
X229534Y141328D01*
X229605Y141372D01*
X229678Y141413D01*
X229753Y141451D01*
X229829Y141485D01*
X229907Y141516D01*
X229986Y141544D01*
X230067Y141568D01*
X230148Y141588D01*
X230512Y141588D01*
X230588Y141590D01*
X230664Y141596D01*
X230739Y141606D01*
X230814Y141620D01*
X230888Y141638D01*
X230961Y141659D01*
X231033Y141685D01*
X231103Y141714D01*
X231172Y141746D01*
X231239Y141783D01*
X231304Y141823D01*
X231367Y141866D01*
X231427Y141912D01*
X231485Y141961D01*
X231540Y142014D01*
X231593Y142069D01*
X231642Y142127D01*
X231688Y142187D01*
X231731Y142250D01*
X231771Y142315D01*
X231808Y142382D01*
X231840Y142451D01*
X231869Y142521D01*
X231895Y142593D01*
X231916Y142666D01*
X231934Y142740D01*
X231948Y142815D01*
X231958Y142890D01*
X231964Y142966D01*
X231966Y143042D01*
X231966Y145587D01*
D12*
X231964Y145666D01*
X231958Y145745D01*
X231949Y145823D01*
X231936Y145901D01*
X231918Y145979D01*
X231898Y146055D01*
X231873Y146130D01*
X231845Y146204D01*
X231814Y146276D01*
X231779Y146347D01*
X231740Y146416D01*
X231698Y146484D01*
X231654Y146549D01*
X231606Y146611D01*
X231555Y146672D01*
X231501Y146730D01*
X231444Y146785D01*
X231385Y146837D01*
X231323Y146887D01*
X231259Y146933D01*
X231193Y146977D01*
X231125Y147017D01*
X231055Y147054D01*
X230983Y147087D01*
X230910Y147117D01*
X230836Y147143D01*
X230760Y147166D01*
X230683Y147184D01*
X230605Y147200D01*
X230527Y147211D01*
X230449Y147219D01*
X230370Y147223D01*
X230290Y147223D01*
X230211Y147219D01*
X230133Y147211D01*
X230055Y147200D01*
X229977Y147184D01*
X229900Y147166D01*
X229824Y147143D01*
X229750Y147117D01*
X229677Y147087D01*
X229605Y147054D01*
X229535Y147017D01*
X229467Y146977D01*
X229401Y146933D01*
X229337Y146887D01*
X229275Y146837D01*
X229216Y146785D01*
X229159Y146730D01*
X229105Y146672D01*
X229054Y146611D01*
X229006Y146549D01*
X228962Y146484D01*
X228920Y146416D01*
X228881Y146347D01*
X228846Y146276D01*
X228815Y146204D01*
X228787Y146130D01*
X228762Y146055D01*
X228742Y145979D01*
X228724Y145901D01*
X228711Y145823D01*
X228702Y145745D01*
X228696Y145666D01*
X228694Y145587D01*
D10*
X228694Y144860D01*
X222151Y147041D02*
X222151Y136135D01*
X215607Y136135D02*
X215607Y147041D01*
X212335Y138680D01*
X209427Y147041D01*
X209427Y136135D01*
X202884Y136135D02*
X199248Y136135D01*
X202884Y136135D02*
X202884Y147041D01*
X193068Y145587D02*
X193068Y137953D01*
D12*
X193068Y145587D02*
X193066Y145666D01*
X193060Y145745D01*
X193051Y145823D01*
X193038Y145901D01*
X193020Y145979D01*
X193000Y146055D01*
X192975Y146130D01*
X192947Y146204D01*
X192916Y146276D01*
X192881Y146347D01*
X192842Y146416D01*
X192800Y146484D01*
X192756Y146549D01*
X192708Y146611D01*
X192657Y146672D01*
X192603Y146730D01*
X192546Y146785D01*
X192487Y146837D01*
X192425Y146887D01*
X192361Y146933D01*
X192295Y146977D01*
X192227Y147017D01*
X192157Y147054D01*
X192085Y147087D01*
X192012Y147117D01*
X191938Y147143D01*
X191862Y147166D01*
X191785Y147184D01*
X191707Y147200D01*
X191629Y147211D01*
X191551Y147219D01*
X191472Y147223D01*
X191392Y147223D01*
X191313Y147219D01*
X191235Y147211D01*
X191157Y147200D01*
X191079Y147184D01*
X191002Y147166D01*
X190926Y147143D01*
X190852Y147117D01*
X190779Y147087D01*
X190707Y147054D01*
X190637Y147017D01*
X190569Y146977D01*
X190503Y146933D01*
X190439Y146887D01*
X190377Y146837D01*
X190318Y146785D01*
X190261Y146730D01*
X190207Y146672D01*
X190156Y146611D01*
X190108Y146549D01*
X190064Y146484D01*
X190022Y146416D01*
X189983Y146347D01*
X189948Y146276D01*
X189917Y146204D01*
X189889Y146130D01*
X189864Y146055D01*
X189844Y145979D01*
X189826Y145901D01*
X189813Y145823D01*
X189804Y145745D01*
X189798Y145666D01*
X189796Y145587D01*
D10*
X189796Y137953D01*
X189798Y137874D01*
X189804Y137795D01*
X189813Y137717D01*
X189826Y137639D01*
X189844Y137561D01*
X189864Y137485D01*
X189889Y137410D01*
X189917Y137336D01*
X189948Y137264D01*
X189983Y137193D01*
X190022Y137124D01*
X190064Y137056D01*
X190108Y136991D01*
X190156Y136929D01*
X190207Y136868D01*
X190261Y136810D01*
X190318Y136755D01*
X190377Y136703D01*
X190439Y136653D01*
X190503Y136607D01*
X190569Y136563D01*
X190637Y136523D01*
X190707Y136486D01*
X190779Y136453D01*
X190852Y136423D01*
X190926Y136397D01*
X191002Y136374D01*
X191079Y136356D01*
X191157Y136340D01*
X191235Y136329D01*
X191313Y136321D01*
X191392Y136317D01*
X191472Y136317D01*
X191551Y136321D01*
X191629Y136329D01*
X191707Y136340D01*
X191785Y136356D01*
X191862Y136374D01*
X191938Y136397D01*
X192012Y136423D01*
X192085Y136453D01*
X192157Y136486D01*
X192227Y136523D01*
X192295Y136563D01*
X192361Y136607D01*
X192425Y136653D01*
X192487Y136703D01*
X192546Y136755D01*
X192603Y136810D01*
X192657Y136868D01*
X192708Y136929D01*
X192756Y136991D01*
X192800Y137056D01*
X192842Y137124D01*
X192881Y137193D01*
X192916Y137264D01*
X192947Y137336D01*
X192975Y137410D01*
X193000Y137485D01*
X193020Y137561D01*
X193038Y137639D01*
X193051Y137717D01*
X193060Y137795D01*
X193066Y137874D01*
X193068Y137953D01*
X179618Y144860D02*
X179618Y145224D01*
X179620Y145308D01*
X179626Y145392D01*
X179635Y145475D01*
X179649Y145558D01*
X179666Y145640D01*
X179687Y145722D01*
X179712Y145802D01*
X179741Y145881D01*
X179773Y145958D01*
X179809Y146034D01*
X179848Y146109D01*
X179890Y146181D01*
X179936Y146251D01*
X179985Y146320D01*
X180037Y146385D01*
X180092Y146449D01*
X180150Y146510D01*
X180211Y146568D01*
X180275Y146623D01*
X180340Y146675D01*
X180409Y146724D01*
X180479Y146770D01*
X180551Y146812D01*
X180626Y146851D01*
X180702Y146887D01*
X180779Y146919D01*
X180858Y146948D01*
X180938Y146973D01*
X181020Y146994D01*
X181102Y147011D01*
X181185Y147025D01*
X181268Y147034D01*
X181352Y147040D01*
X181436Y147042D01*
X181520Y147040D01*
X181604Y147034D01*
X181687Y147025D01*
X181770Y147011D01*
X181852Y146994D01*
X181934Y146973D01*
X182014Y146948D01*
X182093Y146919D01*
X182170Y146887D01*
X182246Y146851D01*
X182321Y146812D01*
X182393Y146770D01*
X182463Y146724D01*
X182532Y146675D01*
X182597Y146623D01*
X182661Y146568D01*
X182722Y146510D01*
X182780Y146449D01*
X182835Y146385D01*
X182887Y146320D01*
X182936Y146251D01*
X182982Y146181D01*
X183024Y146109D01*
X183063Y146034D01*
X183099Y145958D01*
X183131Y145881D01*
X183160Y145802D01*
X183185Y145722D01*
X183206Y145640D01*
X183223Y145558D01*
X183237Y145475D01*
X183246Y145392D01*
X183252Y145308D01*
X183254Y145224D01*
X183253Y145224D02*
X183253Y137953D01*
X183254Y137953D02*
X183252Y137869D01*
X183246Y137785D01*
X183237Y137702D01*
X183223Y137619D01*
X183206Y137537D01*
X183185Y137455D01*
X183160Y137375D01*
X183131Y137296D01*
X183099Y137219D01*
X183063Y137143D01*
X183024Y137068D01*
X182982Y136996D01*
X182936Y136926D01*
X182887Y136857D01*
X182835Y136792D01*
X182780Y136728D01*
X182722Y136667D01*
X182661Y136609D01*
X182597Y136554D01*
X182532Y136502D01*
X182463Y136453D01*
X182393Y136407D01*
X182321Y136365D01*
X182246Y136326D01*
X182170Y136290D01*
X182093Y136258D01*
X182014Y136229D01*
X181934Y136204D01*
X181852Y136183D01*
X181770Y136166D01*
X181687Y136152D01*
X181604Y136143D01*
X181520Y136137D01*
X181436Y136135D01*
X181352Y136137D01*
X181268Y136143D01*
X181185Y136152D01*
X181102Y136166D01*
X181020Y136183D01*
X180938Y136204D01*
X180858Y136229D01*
X180779Y136258D01*
X180702Y136290D01*
X180626Y136326D01*
X180551Y136365D01*
X180479Y136407D01*
X180409Y136453D01*
X180340Y136502D01*
X180275Y136554D01*
X180211Y136609D01*
X180150Y136667D01*
X180092Y136728D01*
X180037Y136792D01*
X179985Y136857D01*
X179936Y136926D01*
X179890Y136996D01*
X179848Y137068D01*
X179809Y137143D01*
X179773Y137219D01*
X179741Y137296D01*
X179712Y137375D01*
X179687Y137455D01*
X179666Y137537D01*
X179649Y137619D01*
X179635Y137702D01*
X179626Y137785D01*
X179620Y137869D01*
X179618Y137953D01*
X179618Y138317D01*
X173438Y139771D02*
X173438Y147041D01*
X173438Y139771D02*
X173438Y136135D01*
X173438Y139771D02*
X170166Y147041D01*
X171984Y142679D02*
X170166Y136135D01*
X161078Y140498D02*
X161078Y148495D01*
X159987Y148495D01*
X159911Y148493D01*
X159835Y148487D01*
X159760Y148477D01*
X159685Y148463D01*
X159611Y148445D01*
X159538Y148424D01*
X159466Y148398D01*
X159396Y148369D01*
X159327Y148337D01*
X159260Y148300D01*
X159195Y148260D01*
X159132Y148217D01*
X159072Y148171D01*
X159014Y148122D01*
X158959Y148069D01*
X158906Y148014D01*
X158857Y147956D01*
X158811Y147896D01*
X158768Y147833D01*
X158728Y147768D01*
X158691Y147701D01*
X158659Y147632D01*
X158630Y147562D01*
X158604Y147490D01*
X158583Y147417D01*
X158565Y147343D01*
X158551Y147268D01*
X158541Y147193D01*
X158535Y147117D01*
X158533Y147041D01*
X158533Y146314D01*
X158535Y146239D01*
X158540Y146164D01*
X158550Y146090D01*
X158563Y146016D01*
X158579Y145943D01*
X158599Y145871D01*
X158623Y145800D01*
X158650Y145730D01*
X158681Y145661D01*
X158715Y145595D01*
X158752Y145529D01*
X158792Y145466D01*
X158836Y145405D01*
X158882Y145346D01*
X158932Y145290D01*
X158984Y145236D01*
X159038Y145185D01*
X159095Y145136D01*
X159155Y145090D01*
X159216Y145048D01*
X159280Y145008D01*
X159345Y144972D01*
X159413Y144939D01*
X159481Y144909D01*
X159552Y144883D01*
X159623Y144860D01*
X160714Y144860D01*
X159623Y144860D02*
X158533Y140498D01*
X162878Y101600D02*
X162882Y101966D01*
X162896Y102332D01*
X162918Y102698D01*
X162950Y103063D01*
X162990Y103427D01*
X163040Y103790D01*
X163098Y104151D01*
X163165Y104511D01*
X163241Y104869D01*
X163325Y105226D01*
X163419Y105580D01*
X163521Y105932D01*
X163631Y106281D01*
X163750Y106627D01*
X163878Y106970D01*
X164014Y107310D01*
X164158Y107647D01*
X164311Y107980D01*
X164471Y108309D01*
X164640Y108634D01*
X164817Y108955D01*
X165001Y109271D01*
X165193Y109583D01*
X165393Y109890D01*
X165600Y110192D01*
X165815Y110489D01*
X166036Y110780D01*
X166265Y111066D01*
X166501Y111347D01*
X166744Y111621D01*
X166993Y111889D01*
X167249Y112151D01*
X167511Y112407D01*
X167779Y112656D01*
X168053Y112899D01*
X168334Y113135D01*
X168620Y113364D01*
X168911Y113585D01*
X169208Y113800D01*
X169510Y114007D01*
X169817Y114207D01*
X170129Y114399D01*
X170445Y114583D01*
X170766Y114760D01*
X171091Y114929D01*
X171420Y115089D01*
X171753Y115242D01*
X172090Y115386D01*
X172430Y115522D01*
X172773Y115650D01*
X173119Y115769D01*
X173468Y115879D01*
X173820Y115981D01*
X174174Y116075D01*
X174531Y116159D01*
X174889Y116235D01*
X175249Y116302D01*
X175610Y116360D01*
X175973Y116410D01*
X176337Y116450D01*
X176702Y116482D01*
X177068Y116504D01*
X177434Y116518D01*
X177800Y116522D01*
X178166Y116518D01*
X178532Y116504D01*
X178898Y116482D01*
X179263Y116450D01*
X179627Y116410D01*
X179990Y116360D01*
X180351Y116302D01*
X180711Y116235D01*
X181069Y116159D01*
X181426Y116075D01*
X181780Y115981D01*
X182132Y115879D01*
X182481Y115769D01*
X182827Y115650D01*
X183170Y115522D01*
X183510Y115386D01*
X183847Y115242D01*
X184180Y115089D01*
X184509Y114929D01*
X184834Y114760D01*
X185155Y114583D01*
X185471Y114399D01*
X185783Y114207D01*
X186090Y114007D01*
X186392Y113800D01*
X186689Y113585D01*
X186980Y113364D01*
X187266Y113135D01*
X187547Y112899D01*
X187821Y112656D01*
X188089Y112407D01*
X188351Y112151D01*
X188607Y111889D01*
X188856Y111621D01*
X189099Y111347D01*
X189335Y111066D01*
X189564Y110780D01*
X189785Y110489D01*
X190000Y110192D01*
X190207Y109890D01*
X190407Y109583D01*
X190599Y109271D01*
X190783Y108955D01*
X190960Y108634D01*
X191129Y108309D01*
X191289Y107980D01*
X191442Y107647D01*
X191586Y107310D01*
X191722Y106970D01*
X191850Y106627D01*
X191969Y106281D01*
X192079Y105932D01*
X192181Y105580D01*
X192275Y105226D01*
X192359Y104869D01*
X192435Y104511D01*
X192502Y104151D01*
X192560Y103790D01*
X192610Y103427D01*
X192650Y103063D01*
X192682Y102698D01*
X192704Y102332D01*
X192718Y101966D01*
X192722Y101600D01*
X192718Y101234D01*
X192704Y100868D01*
X192682Y100502D01*
X192650Y100137D01*
X192610Y99773D01*
X192560Y99410D01*
X192502Y99049D01*
X192435Y98689D01*
X192359Y98331D01*
X192275Y97974D01*
X192181Y97620D01*
X192079Y97268D01*
X191969Y96919D01*
X191850Y96573D01*
X191722Y96230D01*
X191586Y95890D01*
X191442Y95553D01*
X191289Y95220D01*
X191129Y94891D01*
X190960Y94566D01*
X190783Y94245D01*
X190599Y93929D01*
X190407Y93617D01*
X190207Y93310D01*
X190000Y93008D01*
X189785Y92711D01*
X189564Y92420D01*
X189335Y92134D01*
X189099Y91853D01*
X188856Y91579D01*
X188607Y91311D01*
X188351Y91049D01*
X188089Y90793D01*
X187821Y90544D01*
X187547Y90301D01*
X187266Y90065D01*
X186980Y89836D01*
X186689Y89615D01*
X186392Y89400D01*
X186090Y89193D01*
X185783Y88993D01*
X185471Y88801D01*
X185155Y88617D01*
X184834Y88440D01*
X184509Y88271D01*
X184180Y88111D01*
X183847Y87958D01*
X183510Y87814D01*
X183170Y87678D01*
X182827Y87550D01*
X182481Y87431D01*
X182132Y87321D01*
X181780Y87219D01*
X181426Y87125D01*
X181069Y87041D01*
X180711Y86965D01*
X180351Y86898D01*
X179990Y86840D01*
X179627Y86790D01*
X179263Y86750D01*
X178898Y86718D01*
X178532Y86696D01*
X178166Y86682D01*
X177800Y86678D01*
X177434Y86682D01*
X177068Y86696D01*
X176702Y86718D01*
X176337Y86750D01*
X175973Y86790D01*
X175610Y86840D01*
X175249Y86898D01*
X174889Y86965D01*
X174531Y87041D01*
X174174Y87125D01*
X173820Y87219D01*
X173468Y87321D01*
X173119Y87431D01*
X172773Y87550D01*
X172430Y87678D01*
X172090Y87814D01*
X171753Y87958D01*
X171420Y88111D01*
X171091Y88271D01*
X170766Y88440D01*
X170445Y88617D01*
X170129Y88801D01*
X169817Y88993D01*
X169510Y89193D01*
X169208Y89400D01*
X168911Y89615D01*
X168620Y89836D01*
X168334Y90065D01*
X168053Y90301D01*
X167779Y90544D01*
X167511Y90793D01*
X167249Y91049D01*
X166993Y91311D01*
X166744Y91579D01*
X166501Y91853D01*
X166265Y92134D01*
X166036Y92420D01*
X165815Y92711D01*
X165600Y93008D01*
X165393Y93310D01*
X165193Y93617D01*
X165001Y93929D01*
X164817Y94245D01*
X164640Y94566D01*
X164471Y94891D01*
X164311Y95220D01*
X164158Y95553D01*
X164014Y95890D01*
X163878Y96230D01*
X163750Y96573D01*
X163631Y96919D01*
X163521Y97268D01*
X163419Y97620D01*
X163325Y97974D01*
X163241Y98331D01*
X163165Y98689D01*
X163098Y99049D01*
X163040Y99410D01*
X162990Y99773D01*
X162950Y100137D01*
X162918Y100502D01*
X162896Y100868D01*
X162882Y101234D01*
X162878Y101600D01*
X153071Y144497D02*
X153073Y144667D01*
X153079Y144836D01*
X153090Y145006D01*
X153104Y145175D01*
X153123Y145344D01*
X153146Y145512D01*
X153173Y145679D01*
X153204Y145846D01*
X153239Y146012D01*
X153278Y146177D01*
X153322Y146342D01*
X153369Y146505D01*
X153420Y146666D01*
X153475Y146827D01*
X153534Y146986D01*
X153597Y147144D01*
X153664Y147300D01*
X153735Y147454D01*
X153809Y147607D01*
X153888Y147757D01*
X153969Y147906D01*
X154055Y148053D01*
X154144Y148197D01*
X154237Y148339D01*
X154333Y148479D01*
X154432Y148617D01*
X154535Y148752D01*
X154641Y148884D01*
X154750Y149014D01*
X154863Y149142D01*
X154978Y149266D01*
X155097Y149387D01*
X155218Y149506D01*
X155342Y149621D01*
X155470Y149734D01*
X155600Y149843D01*
X155732Y149949D01*
X155867Y150052D01*
X156005Y150151D01*
X156145Y150247D01*
X156287Y150340D01*
X156431Y150429D01*
X156578Y150515D01*
X156727Y150596D01*
X156877Y150675D01*
X157030Y150749D01*
X157184Y150820D01*
X157340Y150887D01*
X157498Y150950D01*
X157657Y151009D01*
X157818Y151064D01*
X157979Y151115D01*
X158142Y151162D01*
X158307Y151206D01*
X158472Y151245D01*
X158638Y151280D01*
X158805Y151311D01*
X158972Y151338D01*
X159140Y151361D01*
X159309Y151380D01*
X159478Y151394D01*
X159648Y151405D01*
X159817Y151411D01*
X159987Y151413D01*
X160157Y151411D01*
X160326Y151405D01*
X160496Y151394D01*
X160665Y151380D01*
X160834Y151361D01*
X161002Y151338D01*
X161169Y151311D01*
X161336Y151280D01*
X161502Y151245D01*
X161667Y151206D01*
X161832Y151162D01*
X161995Y151115D01*
X162156Y151064D01*
X162317Y151009D01*
X162476Y150950D01*
X162634Y150887D01*
X162790Y150820D01*
X162944Y150749D01*
X163097Y150675D01*
X163247Y150596D01*
X163396Y150515D01*
X163543Y150429D01*
X163687Y150340D01*
X163829Y150247D01*
X163969Y150151D01*
X164107Y150052D01*
X164242Y149949D01*
X164374Y149843D01*
X164504Y149734D01*
X164632Y149621D01*
X164756Y149506D01*
X164877Y149387D01*
X164996Y149266D01*
X165111Y149142D01*
X165224Y149014D01*
X165333Y148884D01*
X165439Y148752D01*
X165542Y148617D01*
X165641Y148479D01*
X165737Y148339D01*
X165830Y148197D01*
X165919Y148053D01*
X166005Y147906D01*
X166086Y147757D01*
X166165Y147607D01*
X166239Y147454D01*
X166310Y147300D01*
X166377Y147144D01*
X166440Y146986D01*
X166499Y146827D01*
X166554Y146666D01*
X166605Y146505D01*
X166652Y146342D01*
X166696Y146177D01*
X166735Y146012D01*
X166770Y145846D01*
X166801Y145679D01*
X166828Y145512D01*
X166851Y145344D01*
X166870Y145175D01*
X166884Y145006D01*
X166895Y144836D01*
X166901Y144667D01*
X166903Y144497D01*
X166901Y144327D01*
X166895Y144158D01*
X166884Y143988D01*
X166870Y143819D01*
X166851Y143650D01*
X166828Y143482D01*
X166801Y143315D01*
X166770Y143148D01*
X166735Y142982D01*
X166696Y142817D01*
X166652Y142652D01*
X166605Y142489D01*
X166554Y142328D01*
X166499Y142167D01*
X166440Y142008D01*
X166377Y141850D01*
X166310Y141694D01*
X166239Y141540D01*
X166165Y141387D01*
X166086Y141237D01*
X166005Y141088D01*
X165919Y140941D01*
X165830Y140797D01*
X165737Y140655D01*
X165641Y140515D01*
X165542Y140377D01*
X165439Y140242D01*
X165333Y140110D01*
X165224Y139980D01*
X165111Y139852D01*
X164996Y139728D01*
X164877Y139607D01*
X164756Y139488D01*
X164632Y139373D01*
X164504Y139260D01*
X164374Y139151D01*
X164242Y139045D01*
X164107Y138942D01*
X163969Y138843D01*
X163829Y138747D01*
X163687Y138654D01*
X163543Y138565D01*
X163396Y138479D01*
X163247Y138398D01*
X163097Y138319D01*
X162944Y138245D01*
X162790Y138174D01*
X162634Y138107D01*
X162476Y138044D01*
X162317Y137985D01*
X162156Y137930D01*
X161995Y137879D01*
X161832Y137832D01*
X161667Y137788D01*
X161502Y137749D01*
X161336Y137714D01*
X161169Y137683D01*
X161002Y137656D01*
X160834Y137633D01*
X160665Y137614D01*
X160496Y137600D01*
X160326Y137589D01*
X160157Y137583D01*
X159987Y137581D01*
X159817Y137583D01*
X159648Y137589D01*
X159478Y137600D01*
X159309Y137614D01*
X159140Y137633D01*
X158972Y137656D01*
X158805Y137683D01*
X158638Y137714D01*
X158472Y137749D01*
X158307Y137788D01*
X158142Y137832D01*
X157979Y137879D01*
X157818Y137930D01*
X157657Y137985D01*
X157498Y138044D01*
X157340Y138107D01*
X157184Y138174D01*
X157030Y138245D01*
X156877Y138319D01*
X156727Y138398D01*
X156578Y138479D01*
X156431Y138565D01*
X156287Y138654D01*
X156145Y138747D01*
X156005Y138843D01*
X155867Y138942D01*
X155732Y139045D01*
X155600Y139151D01*
X155470Y139260D01*
X155342Y139373D01*
X155218Y139488D01*
X155097Y139607D01*
X154978Y139728D01*
X154863Y139852D01*
X154750Y139980D01*
X154641Y140110D01*
X154535Y140242D01*
X154432Y140377D01*
X154333Y140515D01*
X154237Y140655D01*
X154144Y140797D01*
X154055Y140941D01*
X153969Y141088D01*
X153888Y141237D01*
X153809Y141387D01*
X153735Y141540D01*
X153664Y141694D01*
X153597Y141850D01*
X153534Y142008D01*
X153475Y142167D01*
X153420Y142328D01*
X153369Y142489D01*
X153322Y142652D01*
X153278Y142817D01*
X153239Y142982D01*
X153204Y143148D01*
X153173Y143315D01*
X153146Y143482D01*
X153123Y143650D01*
X153104Y143819D01*
X153090Y143988D01*
X153079Y144158D01*
X153073Y144327D01*
X153071Y144497D01*
D11*
X299635Y197866D02*
X304038Y191262D01*
X299635Y191262D02*
X304038Y197866D01*
X296356Y194931D02*
X294155Y194931D01*
X294081Y194929D01*
X294006Y194923D01*
X293933Y194914D01*
X293859Y194901D01*
X293787Y194884D01*
X293716Y194864D01*
X293645Y194840D01*
X293576Y194812D01*
X293509Y194781D01*
X293443Y194747D01*
X293378Y194709D01*
X293316Y194668D01*
X293256Y194624D01*
X293199Y194577D01*
X293144Y194527D01*
X293091Y194474D01*
X293041Y194419D01*
X292994Y194362D01*
X292950Y194302D01*
X292909Y194240D01*
X292871Y194175D01*
X292837Y194109D01*
X292806Y194042D01*
X292778Y193973D01*
X292754Y193902D01*
X292734Y193831D01*
X292717Y193759D01*
X292704Y193685D01*
X292695Y193612D01*
X292689Y193537D01*
X292687Y193463D01*
X292687Y193096D01*
X292688Y193096D02*
X292690Y193011D01*
X292696Y192927D01*
X292706Y192843D01*
X292719Y192759D01*
X292737Y192676D01*
X292758Y192594D01*
X292783Y192513D01*
X292812Y192433D01*
X292844Y192355D01*
X292880Y192279D01*
X292920Y192204D01*
X292963Y192131D01*
X293009Y192060D01*
X293058Y191991D01*
X293111Y191924D01*
X293167Y191860D01*
X293225Y191799D01*
X293286Y191741D01*
X293350Y191685D01*
X293417Y191632D01*
X293486Y191583D01*
X293557Y191537D01*
X293630Y191494D01*
X293705Y191454D01*
X293781Y191418D01*
X293859Y191386D01*
X293939Y191357D01*
X294020Y191332D01*
X294102Y191311D01*
X294185Y191293D01*
X294269Y191280D01*
X294353Y191270D01*
X294437Y191264D01*
X294522Y191262D01*
X294607Y191264D01*
X294691Y191270D01*
X294775Y191280D01*
X294859Y191293D01*
X294942Y191311D01*
X295024Y191332D01*
X295105Y191357D01*
X295185Y191386D01*
X295263Y191418D01*
X295339Y191454D01*
X295414Y191494D01*
X295487Y191537D01*
X295558Y191583D01*
X295627Y191632D01*
X295694Y191685D01*
X295758Y191741D01*
X295819Y191799D01*
X295877Y191860D01*
X295933Y191924D01*
X295986Y191991D01*
X296035Y192060D01*
X296081Y192131D01*
X296124Y192204D01*
X296164Y192279D01*
X296200Y192355D01*
X296232Y192433D01*
X296261Y192513D01*
X296286Y192594D01*
X296307Y192676D01*
X296325Y192759D01*
X296338Y192843D01*
X296348Y192927D01*
X296354Y193011D01*
X296356Y193096D01*
X296356Y194931D01*
X296354Y195038D01*
X296348Y195145D01*
X296338Y195252D01*
X296325Y195358D01*
X296307Y195464D01*
X296286Y195569D01*
X296261Y195673D01*
X296232Y195777D01*
X296199Y195879D01*
X296162Y195979D01*
X296122Y196079D01*
X296078Y196177D01*
X296031Y196273D01*
X295980Y196367D01*
X295926Y196460D01*
X295869Y196550D01*
X295808Y196639D01*
X295744Y196725D01*
X295677Y196808D01*
X295607Y196890D01*
X295534Y196968D01*
X295458Y197044D01*
X295380Y197117D01*
X295298Y197187D01*
X295215Y197254D01*
X295129Y197318D01*
X295040Y197379D01*
X294950Y197436D01*
X294857Y197490D01*
X294763Y197541D01*
X294667Y197588D01*
X294569Y197632D01*
X294470Y197672D01*
X294369Y197709D01*
X294267Y197742D01*
X294163Y197771D01*
X294059Y197796D01*
X293954Y197817D01*
X293848Y197835D01*
X293742Y197848D01*
X293635Y197858D01*
X293528Y197864D01*
X293421Y197866D01*
M02*
