G04 EAGLE Gerber X2 export*
%TF.Part,Single*%
%TF.FileFunction,Paste,Top*%
%TF.FilePolarity,Positive*%
%TF.GenerationSoftware,Autodesk,EAGLE,9.1.0*%
%TF.CreationDate,2019-01-28T13:00:55Z*%
G75*
%MOMM*%
%FSLAX34Y34*%
%LPD*%
%AMOC8*
5,1,8,0,0,1.08239X$1,22.5*%
G01*
%ADD10R,1.100000X0.900000*%
%ADD11R,0.900000X1.100000*%
%ADD12R,1.500000X1.500000*%
%ADD13R,2.300000X2.700000*%
%ADD14R,0.965200X0.762000*%
%ADD15R,0.812800X2.133600*%


D10*
X96800Y157600D03*
X96800Y143600D03*
X96800Y129600D03*
X96800Y115600D03*
X96800Y101600D03*
X96800Y87600D03*
X96800Y73600D03*
X96800Y59600D03*
X96800Y45600D03*
D11*
X100800Y30600D03*
X114800Y30600D03*
X128800Y30600D03*
X142800Y30600D03*
X156800Y30600D03*
X170800Y30600D03*
X184800Y30600D03*
X198800Y30600D03*
X212800Y30600D03*
X226800Y30600D03*
X240800Y30600D03*
X254800Y30600D03*
D10*
X258800Y45600D03*
X258800Y59600D03*
X258800Y73600D03*
X258800Y87600D03*
X258800Y101600D03*
X258800Y115600D03*
X258800Y129600D03*
X258800Y143600D03*
X258800Y157600D03*
D11*
X254800Y172600D03*
X240800Y172600D03*
X226800Y172600D03*
X212800Y172600D03*
X198800Y172600D03*
X184800Y172600D03*
X170800Y172600D03*
X156800Y172600D03*
X142800Y172600D03*
X128800Y172600D03*
X114800Y172600D03*
X100800Y172600D03*
D10*
X114200Y157600D03*
X114200Y143600D03*
X114200Y129600D03*
X114200Y115600D03*
X114200Y101600D03*
X114200Y87600D03*
X114200Y73600D03*
X114200Y59600D03*
X114200Y45600D03*
D11*
X128800Y46600D03*
X142800Y46600D03*
X156800Y46600D03*
X170800Y46600D03*
X184800Y46600D03*
X198800Y46600D03*
X212800Y46600D03*
X226800Y46600D03*
D10*
X241400Y45600D03*
X241400Y59600D03*
X241400Y73600D03*
X241400Y87600D03*
X241400Y101600D03*
X241400Y115600D03*
X241400Y129600D03*
X241400Y143600D03*
X241400Y157600D03*
D11*
X226800Y156600D03*
X212800Y156600D03*
X198800Y156600D03*
X184800Y156600D03*
X170800Y156600D03*
X156800Y156600D03*
X142800Y156600D03*
X128800Y156600D03*
D12*
X138800Y131600D03*
D13*
X138800Y101600D03*
X138800Y71600D03*
X164800Y71600D03*
X190800Y71600D03*
X216800Y71600D03*
X216800Y101600D03*
X216800Y131600D03*
X190800Y131600D03*
X164800Y131600D03*
X164800Y101600D03*
X190800Y101600D03*
D14*
X38100Y167386D03*
D15*
X52054Y182626D03*
X24146Y182626D03*
M02*
