G04 EAGLE Gerber X2 export*
%TF.Part,Single*%
%TF.FileFunction,Soldermask,Top,1*%
%TF.FilePolarity,Negative*%
%TF.GenerationSoftware,Autodesk,EAGLE,9.1.0*%
%TF.CreationDate,2019-01-28T13:00:55Z*%
G75*
%MOMM*%
%FSLAX34Y34*%
%LPD*%
%AMOC8*
5,1,8,0,0,1.08239X$1,22.5*%
G01*
%ADD10P,1.951982X8X22.500000*%
%ADD11R,1.303200X1.103200*%
%ADD12R,1.103200X1.303200*%
%ADD13R,1.703200X1.703200*%
%ADD14R,2.503200X2.903200*%
%ADD15R,1.727200X4.267200*%
%ADD16R,1.219200X2.235200*%
%ADD17R,0.914400X2.336800*%
%ADD18C,0.959600*%


D10*
X114300Y215900D03*
X165100Y215900D03*
X215900Y215900D03*
X266700Y215900D03*
D11*
X96800Y157600D03*
X96800Y143600D03*
X96800Y129600D03*
X96800Y115600D03*
X96800Y101600D03*
X96800Y87600D03*
X96800Y73600D03*
X96800Y59600D03*
X96800Y45600D03*
D12*
X100800Y30600D03*
X114800Y30600D03*
X128800Y30600D03*
X142800Y30600D03*
X156800Y30600D03*
X170800Y30600D03*
X184800Y30600D03*
X198800Y30600D03*
X212800Y30600D03*
X226800Y30600D03*
X240800Y30600D03*
X254800Y30600D03*
D11*
X258800Y45600D03*
X258800Y59600D03*
X258800Y73600D03*
X258800Y87600D03*
X258800Y101600D03*
X258800Y115600D03*
X258800Y129600D03*
X258800Y143600D03*
X258800Y157600D03*
D12*
X254800Y172600D03*
X240800Y172600D03*
X226800Y172600D03*
X212800Y172600D03*
X198800Y172600D03*
X184800Y172600D03*
X170800Y172600D03*
X156800Y172600D03*
X142800Y172600D03*
X128800Y172600D03*
X114800Y172600D03*
X100800Y172600D03*
D11*
X114200Y157600D03*
X114200Y143600D03*
X114200Y129600D03*
X114200Y115600D03*
X114200Y101600D03*
X114200Y87600D03*
X114200Y73600D03*
X114200Y59600D03*
X114200Y45600D03*
D12*
X128800Y46600D03*
X142800Y46600D03*
X156800Y46600D03*
X170800Y46600D03*
X184800Y46600D03*
X198800Y46600D03*
X212800Y46600D03*
X226800Y46600D03*
D11*
X241400Y45600D03*
X241400Y59600D03*
X241400Y73600D03*
X241400Y87600D03*
X241400Y101600D03*
X241400Y115600D03*
X241400Y129600D03*
X241400Y143600D03*
X241400Y157600D03*
D12*
X226800Y156600D03*
X212800Y156600D03*
X198800Y156600D03*
X184800Y156600D03*
X170800Y156600D03*
X156800Y156600D03*
X142800Y156600D03*
X128800Y156600D03*
D13*
X138800Y131600D03*
D14*
X138800Y101600D03*
X138800Y71600D03*
X164800Y71600D03*
X190800Y71600D03*
X216800Y71600D03*
X216800Y101600D03*
X216800Y131600D03*
X190800Y131600D03*
X164800Y131600D03*
X164800Y101600D03*
X190800Y101600D03*
D15*
X63500Y182880D03*
X12700Y182880D03*
D16*
X38100Y172720D03*
D17*
X52054Y182626D03*
X24146Y182626D03*
D18*
X50800Y38100D03*
X381000Y165100D03*
X121920Y91440D03*
X121920Y91440D03*
X121920Y91440D03*
X304800Y132080D03*
X365760Y111760D03*
X325120Y71120D03*
X294640Y101600D03*
X286484Y40640D03*
X272316Y40640D03*
X76200Y13942D03*
X330200Y152400D03*
X279400Y25400D03*
X152400Y13942D03*
X190500Y13942D03*
M02*
